<svg xmlns="http://www.w3.org/2000/svg" xmlns:xlink="http://www.w3.org/1999/xlink" width="2172.78" height="957.358" viewBox="0 0 2172.78 957.358">
  <defs>
    <linearGradient id="linear-gradient" x1="0.5" x2="1.044" y2="0.427" gradientUnits="objectBoundingBox">
      <stop offset="0" stop-color="#8d20a1"/>
      <stop offset="0.142" stop-color="#831e96"/>
      <stop offset="0.393" stop-color="#711a82"/>
      <stop offset="0.799" stop-color="#551361"/>
      <stop offset="1" stop-color="#471051"/>
    </linearGradient>
  </defs>
  <g id="Group_1138" data-name="Group 1138" transform="translate(0 91.152)">
    <path id="Path_63" data-name="Path 63" d="M1887,380.58c-67.858,69.735-154.661,57.219-229.752,13.113s-143.294-116.226-217.7-162.12-160.517-63.775-230.441.6c-64.758,59.6-109.193,183.577-180.84,210.994-56.835,22.053-115.048-23.841-164.306-78.08S767.172,245.877,709.992,224.42c-66.824-25.629-136.06,11.921-198.751,59.6-62.691,47.086-124,104.9-191.862,122.782-63.035,16.689-127.1-2.98-190.484,3.576S-3.377,458.064-33,555.812v500.664H1881.833Z" transform="translate(1887 1056.476) rotate(180)" fill="#d7f5f5"/>
    <path id="Path_133" data-name="Path 133" d="M156.123-68.443c-9.122,48.416,20,95.077,60.344,119.285,45.609,27.365,85.078,38.592,94.551,92.095,3.158,17.366,8.069,41.75,16.139,57.537,29.295,58.239,97.182,40.873,148.229,39.645,47.889-1.228,79.114,25.962,127.354,65.256.351.175,101.217,128.582,147.527,1.228,8.6-23.682,10.7-42.978,14.384-55.959,14.384-50.871,60.87-49.117,131.213-79.114,89.113-37.89,117.706-141.738,22.278-176.471C881.479-18.273,849.729-20.2,814.469-37.394c-71.922-35.259-64.554-107.707-127-138.932-22.278-13.858-55.959-17.016-78.763-13.507-88.06,14.034-122.267,48.942-185.944,29.821-21.577-6.491-48.591-18.945-80.868-23.857C258.918-196.5,170.507-144.575,156.123-68.443Z" transform="translate(1195.28 100)" fill="url(#linear-gradient)"/>
  </g>
</svg>
