<svg xmlns="http://www.w3.org/2000/svg" xmlns:xlink="http://www.w3.org/1999/xlink" width="1090.844" height="734.35" viewBox="0 0 1090.844 734.35">
  <defs>
    <linearGradient id="linear-gradient" x1="0.5" x2="1.044" y2="0.427" gradientUnits="objectBoundingBox">
      <stop offset="0" stop-color="#8d20a1"/>
      <stop offset="0.142" stop-color="#831e96"/>
      <stop offset="0.393" stop-color="#711a82"/>
      <stop offset="0.799" stop-color="#551361"/>
      <stop offset="1" stop-color="#471051"/>
    </linearGradient>
  </defs>
  <g id="Group_1138" data-name="Group 1138" transform="translate(-1349.722 91.152)">
    <path id="Path_133" data-name="Path 133" d="M156.67-28.519c-12.09,64.168,26.5,126.011,79.977,158.095,60.448,36.269,112.759,51.148,125.313,122.058,4.185,23.017,10.695,55.333,21.389,76.257,38.826,77.187,128.8,54.171,196.456,52.543,63.47-1.627,104.854,34.409,168.789,86.487.465.232,134.148,170.417,195.526,1.627,11.392-31.386,14.182-56.961,19.064-74.165,19.064-67.423,80.675-65.1,173.9-104.854,118.106-50.218,156-187.854,29.526-233.887-48.591-17.669-90.672-20.227-137.4-43.011C933.891-34.1,943.655-130.118,860.888-171.5c-29.527-18.367-74.165-22.552-104.389-17.9-116.711,18.6-162.047,64.865-246.442,39.524-28.6-8.6-64.4-25.109-107.179-31.619C292.91-198.239,175.734-129.421,156.67-28.519Z" transform="translate(1195.28 100)" fill="url(#linear-gradient)"/>
  </g>
</svg>
