<svg id="Group_778" data-name="Group 778" xmlns="http://www.w3.org/2000/svg" width="220.95" height="66.962" viewBox="0 0 220.95 66.962">
  <path id="Path_7836" data-name="Path 7836" d="M267.777,76.313c0,9.389-8.935,17.113-19.839,17.113-11.055,0-19.839-7.723-19.839-17.113S237.035,59.2,247.939,59.2,267.777,66.923,267.777,76.313Z" transform="translate(-138.448 -59.2)" fill="#09c5d3"/>
  <path id="Path_7837" data-name="Path 7837" d="M254.287,96.424c0,4.695-4.392,8.481-9.844,8.481h0c-5.452,0-9.844-3.786-9.844-8.481V91.881c0-4.695,4.392-8.481,9.844-8.481h0c5.452,0,9.844,3.786,9.844,8.481Z" transform="translate(-135.104 -46.752)" fill="#09c5d3"/>
  <path id="Path_7838" data-name="Path 7838" d="M337.77,82.547l-64.059-13.63a18.633,18.633,0,0,0-16.053,0L193.6,82.547v5.6s48.763,14.387,72.237,14.387c24.685,0,72.237-14.387,72.237-14.387v-5.6Z" transform="translate(-156.194 -55.136)" fill="#565a5b"/>
  <path id="Path_7839" data-name="Path 7839" d="M295.563,89.4a3.361,3.361,0,0,1-3.332,3.332h0A3.361,3.361,0,0,1,288.9,89.4V71.532a3.361,3.361,0,0,1,3.332-3.332h0a3.361,3.361,0,0,1,3.332,3.332Z" transform="translate(-107.173 -54.57)" fill="#565a5b"/>
  <g id="Group_774" data-name="Group 774" transform="translate(0 13.192)">
    <path id="Path_7840" data-name="Path 7840" d="M204.488,71.075c-16.355-7.118-35.588,0-35.588,0S188.133,78.192,204.488,71.075Z" transform="translate(-168.9 -67.911)" fill="#c1db2c"/>
    <path id="Path_7841" data-name="Path 7841" d="M228.488,71.075c-16.355-7.118-35.588,0-35.588,0S212.133,78.192,228.488,71.075Z" transform="translate(-156.555 -67.911)" fill="#c1db2c"/>
  </g>
  <g id="Group_775" data-name="Group 775" transform="translate(149.016 13.192)">
    <path id="Path_7842" data-name="Path 7842" d="M302.888,71.075c-16.355-7.118-35.588,0-35.588,0S286.533,78.192,302.888,71.075Z" transform="translate(-267.3 -67.911)" fill="#c1db2c"/>
    <path id="Path_7843" data-name="Path 7843" d="M326.888,71.075c-16.355-7.118-35.588,0-35.588,0S310.533,78.192,326.888,71.075Z" transform="translate(-254.955 -67.911)" fill="#c1db2c"/>
  </g>
  <path id="Path_7844" data-name="Path 7844" d="M260.728,81.709a6.237,6.237,0,0,1-6.209,6.209h-16.81a6.237,6.237,0,0,1-6.209-6.209h0a6.237,6.237,0,0,1,6.209-6.209h16.81a6.237,6.237,0,0,1,6.209,6.209Z" transform="translate(-136.699 -50.815)" fill="#c1db2c"/>
  <g id="Group_776" data-name="Group 776" transform="translate(73.145 28.319)">
    <path id="Path_7845" data-name="Path 7845" d="M227.849,80.474a2.654,2.654,0,0,1-2.574,2.574h0a2.654,2.654,0,0,1-2.574-2.574h0a2.654,2.654,0,0,1,2.574-2.574h0a2.553,2.553,0,0,1,2.574,2.574Z" transform="translate(-214.371 -77.9)" fill="#c1db2c"/>
    <path id="Path_7846" data-name="Path 7846" d="M222.349,80.474a2.654,2.654,0,0,1-2.574,2.574h0a2.654,2.654,0,0,1-2.574-2.574h0a2.654,2.654,0,0,1,2.574-2.574h0a2.654,2.654,0,0,1,2.574,2.574Z" transform="translate(-217.2 -77.9)" fill="#c1db2c"/>
  </g>
  <g id="Group_777" data-name="Group 777" transform="translate(131.449 28.319)">
    <path id="Path_7847" data-name="Path 7847" d="M266.349,80.474a2.654,2.654,0,0,1-2.574,2.574h0a2.654,2.654,0,0,1-2.575-2.574h0a2.654,2.654,0,0,1,2.575-2.574h0a2.552,2.552,0,0,1,2.574,2.574Z" transform="translate(-252.871 -77.9)" fill="#c1db2c"/>
    <path id="Path_7848" data-name="Path 7848" d="M260.849,80.474a2.654,2.654,0,0,1-2.574,2.574h0a2.654,2.654,0,0,1-2.574-2.574h0a2.654,2.654,0,0,1,2.574-2.574h0a2.654,2.654,0,0,1,2.574,2.574Z" transform="translate(-255.7 -77.9)" fill="#c1db2c"/>
  </g>
  <path id="Path_7849" data-name="Path 7849" d="M218.906,111.816a2.7,2.7,0,0,1-3.786.757h0a2.7,2.7,0,0,1-.757-3.786L228.75,85.92a2.7,2.7,0,0,1,3.786-.757h0a2.7,2.7,0,0,1,.757,3.786Z" transform="translate(-145.761 -46.092)" fill="#565a5b"/>
  <path id="Path_7850" data-name="Path 7850" d="M269.4,111.816a2.7,2.7,0,0,0,3.786.757h0a2.7,2.7,0,0,0,.757-3.786L259.706,85.92a2.7,2.7,0,0,0-3.786-.757h0a2.7,2.7,0,0,0-.757,3.786Z" transform="translate(-124.774 -46.092)" fill="#565a5b"/>
</svg>
