<svg xmlns="http://www.w3.org/2000/svg" width="23.25" height="23.25" viewBox="0 0 23.25 23.25">
  <path id="Icon_awesome-compass" data-name="Icon awesome-compass" d="M10.565,10.939a1.5,1.5,0,1,0,2.121,0A1.5,1.5,0,0,0,10.565,10.939ZM11.625.375A11.625,11.625,0,1,0,23.25,12,11.625,11.625,0,0,0,11.625.375Zm5.913,6.94-3.092,6.766a1.5,1.5,0,0,1-.739.739L6.94,17.913a.927.927,0,0,1-1.228-1.228L8.805,9.918a1.5,1.5,0,0,1,.739-.739L16.31,6.087a.927.927,0,0,1,1.228,1.228Z" transform="translate(0 -0.375)" fill="#fff"/>
</svg>
