<svg xmlns="http://www.w3.org/2000/svg" width="20.193" height="22.11" viewBox="0 0 20.193 22.11">
  <g id="Icon_feather-box" data-name="Icon feather-box" transform="translate(-1.904 -0.97)">
    <path id="Path_1971" data-name="Path 1971" d="M21,16V8a2,2,0,0,0-1-1.73l-7-4a2,2,0,0,0-2,0l-7,4A2,2,0,0,0,3,8v8a2,2,0,0,0,1,1.73l7,4a2,2,0,0,0,2,0l7-4A2,2,0,0,0,21,16Z" fill="none" stroke="#0060fe" stroke-linecap="round" stroke-linejoin="round" stroke-width="2"/>
    <path id="Path_1972" data-name="Path 1972" d="M3.27,6.96,12,12.01l8.73-5.05" fill="none" stroke="#0060fe" stroke-linecap="round" stroke-linejoin="round" stroke-width="2"/>
    <path id="Path_1973" data-name="Path 1973" d="M12,22.08V12" fill="none" stroke="#0060fe" stroke-linecap="round" stroke-linejoin="round" stroke-width="2"/>
  </g>
</svg>
