<svg xmlns="http://www.w3.org/2000/svg" width="16.827" height="18.425" viewBox="0 0 16.827 18.425">
  <g id="Icon_feather-box" data-name="Icon feather-box" transform="translate(-1.586 -0.809)">
    <path id="Path_2064" data-name="Path 2064" d="M17.5,13.333V6.667a1.667,1.667,0,0,0-.833-1.442L10.833,1.892a1.667,1.667,0,0,0-1.667,0L3.333,5.225A1.667,1.667,0,0,0,2.5,6.667v6.667a1.667,1.667,0,0,0,.833,1.442l5.833,3.333a1.667,1.667,0,0,0,1.667,0l5.833-3.333a1.667,1.667,0,0,0,.833-1.442Z" fill="none" stroke="#0060fe" stroke-linecap="round" stroke-linejoin="round" stroke-width="1.667"/>
    <path id="Path_2065" data-name="Path 2065" d="M2.725,5.8,10,10.008,17.275,5.8" fill="none" stroke="#0060fe" stroke-linecap="round" stroke-linejoin="round" stroke-width="1.667"/>
    <path id="Path_2066" data-name="Path 2066" d="M10,18.4V10" fill="none" stroke="#0060fe" stroke-linecap="round" stroke-linejoin="round" stroke-width="1.667"/>
  </g>
</svg>
