<svg xmlns="http://www.w3.org/2000/svg" width="25.014" height="22.239" viewBox="0 0 25.014 22.239">
  <path id="Icon_awesome-leaf" data-name="Icon awesome-leaf" d="M23.722.421A.676.676,0,0,0,22.493.369a7.448,7.448,0,0,1-6.51,3.8H12.508A8.341,8.341,0,0,0,4.17,12.508a8.587,8.587,0,0,0,.065.89,20.779,20.779,0,0,1,12.443-3.67.695.695,0,0,1,0,1.39C5.759,11.118,1.129,17.811.1,20.325A1.392,1.392,0,0,0,2.68,21.381,11.426,11.426,0,0,1,5.8,17.446,8.32,8.32,0,0,0,13.4,20.8c6.819-.5,11.618-6.61,11.618-14.1A15.793,15.793,0,0,0,23.722.421Z" transform="translate(-0.003 0.001)" fill="#fff"/>
</svg>
