<svg xmlns="http://www.w3.org/2000/svg" width="18" height="12.75" viewBox="0 0 18 12.75">
  <g id="Icon_ionic-ios-shuffle" data-name="Icon ionic-ios-shuffle" transform="translate(-3 -5.63)">
    <path id="Path_1957" data-name="Path 1957" d="M19.027,13.5a.66.66,0,0,0-.464-.192.649.649,0,0,0-.464.192.641.641,0,0,0-.192.464.669.669,0,0,0,.192.464l.764.759H15.323L9.511,7.927l0,0A.673.673,0,0,0,9,7.688H3.656A.656.656,0,0,0,3.656,9H8.691l2.461,3.094L8.691,15.188H3.656a.656.656,0,0,0,0,1.313H9a.655.655,0,0,0,.5-.234l0,0L12,13.13l2.494,3.131,0,0a.655.655,0,0,0,.5.234h3.956l-.764.759a.633.633,0,0,0-.192.464.669.669,0,0,0,.192.464.66.66,0,0,0,.464.192.649.649,0,0,0,.464-.192L20.7,16.622a1.019,1.019,0,0,0,0-1.453Z" fill="#fff"/>
    <path id="Path_1958" data-name="Path 1958" d="M13.1,11.034a.269.269,0,0,0,.216.1h0a.273.273,0,0,0,.216-.1l1.777-2.217h3.553l-.764.759a.633.633,0,0,0-.192.464.669.669,0,0,0,.192.464.66.66,0,0,0,.464.192.649.649,0,0,0,.464-.192L20.7,8.841a1.019,1.019,0,0,0,0-1.453L19.12,5.822a.66.66,0,0,0-.464-.192.649.649,0,0,0-.464.192A.641.641,0,0,0,18,6.286a.669.669,0,0,0,.192.464l.764.759H15a.655.655,0,0,0-.5.234l0,0L12.6,10.1a.276.276,0,0,0,0,.356Z" fill="#fff"/>
  </g>
</svg>
