<svg xmlns="http://www.w3.org/2000/svg" viewBox="0 0 561.79 293.35"><defs><style>.cls-1{fill:#171723;}.cls-2{fill:#313042;}.cls-3{fill:#f7cc61;}.cls-4{fill:#0f0f19;}.cls-5{fill:#21212d;}.cls-6{fill:#45455b;}.cls-7{fill:#626272;}.cls-8{fill:#c5dede;}.cls-9{fill:#91c1bf;}.cls-10{fill:#d82a2a;}.cls-11{fill:#25252b;}.cls-12{fill:#151519;}</style></defs><title>Asset 4</title><g id="Layer_2" data-name="Layer 2"><g id="OBJECTS"><path class="cls-1" d="M1.22,6.26s-2.13,1.12-.07,6.38l.1.21,1.43,3,0,0c.28.49.57,1,.91,1.56a188.22,188.22,0,0,1,9.63,18.12l14,11.51s1.2-5.68,5.6-4.87,6.87,5.49,6.87,5.49h3.7S22.26,18.52,15.54,11.78C15.54,11.78,9.89,5.17,1.22,6.26Z" transform="translate(-0.25 -0.25)"/><path class="cls-2" d="M11.53,83.4l0,15.15c1.92,4.48,6.27,6.09,9.32,6.64a15.47,15.47,0,0,0,3.28.31H53.16l0,0-16.48-15c-17.24,1.51-23.56-2.58-25-6.17A2.68,2.68,0,0,1,11.53,83.4Z" transform="translate(-0.25 -0.25)"/><path class="cls-2" d="M11.51,98.55l20.82,65.09,10.31,5.65L20.75,105.5l.08-.31C17.78,104.64,13.43,103,11.51,98.55Z" transform="translate(-0.25 -0.25)"/><path class="cls-1" d="M11.53,82.88v.52a2.68,2.68,0,0,0,.21.94c1.41,3.59,7.73,7.68,25,6.17L35.2,89.15S20.15,90,15.44,84v-4.9s-3.65,1.2-3.91,3.7Z" transform="translate(-0.25 -0.25)"/><path class="cls-3" d="M15.44,79.13V84c4.71,6,19.76,5.12,19.76,5.12L24.55,79.44l4.92-9.55a21.94,21.94,0,0,1-14-5.08Z" transform="translate(-0.25 -0.25)"/><path class="cls-4" d="M18.2,60.91l-2.76,3.9a21.94,21.94,0,0,0,14,5.08l2-3.8h0C19.42,67.05,18.2,60.91,18.2,60.91Z" transform="translate(-0.25 -0.25)"/><path class="cls-5" d="M22.39,57.24s-3.7.75-4.19,3.67c0,0,1.22,6.14,13.22,5.18h0l1.41-2.73A9,9,0,0,1,31,61.17C30.62,62.31,22.31,60.49,22.39,57.24Z" transform="translate(-0.25 -0.25)"/><path class="cls-1" d="M20.83,105.19l-.08.31,21.89,63.79,7.61-5.42L31,105.5H24.11A15.47,15.47,0,0,1,20.83,105.19Z" transform="translate(-0.25 -0.25)"/><path class="cls-5" d="M22.39,57.24c-.08,3.25,8.23,5.07,8.64,3.93a5.79,5.79,0,0,1-.86-2.87,10.12,10.12,0,0,1-1.06-4.81,9.67,9.67,0,0,1-1.57-2,9.58,9.58,0,0,0-4.92,4.87,1.17,1.17,0,0,0-.1.26A1.84,1.84,0,0,0,22.39,57.24Z" transform="translate(-0.25 -0.25)"/><path class="cls-1" d="M29.47,69.89l-4.92,9.55L35.2,89.15l1.51,1.36,16.48,15,9.11,8.3,18.07-1-3.13-6L67.35,87.93,61.65,77,55.79,65.8,45.53,58.3s1.31,4.4-3.82,5.86a11.82,11.82,0,0,1-8.85-.8l-1.41,2.73Z" transform="translate(-0.25 -0.25)"/><path class="cls-4" d="M27.26,47.06l-.34,2.78a5.14,5.14,0,0,0,.62,1.62,9.67,9.67,0,0,0,1.57,2,10.12,10.12,0,0,0,1.06,4.81A5.79,5.79,0,0,0,31,61.17a9,9,0,0,0,1.83,2.19,11.82,11.82,0,0,0,8.85.8c5.13-1.46,3.82-5.86,3.82-5.86l-2.1-3.2c-.55-2.81-3.7-4.66-3.7-4.66.1-2.91,0-2.76,0-2.76s-2.5-4.66-6.87-5.49S27.26,47.06,27.26,47.06Z" transform="translate(-0.25 -0.25)"/><polygon class="cls-1" points="61.4 76.75 67.1 87.68 177.33 90.6 174.64 88.02 174.62 88.02 166.29 80.08 61.4 76.75"/><polygon class="cls-2" points="158.92 113.48 158.92 113.53 152.41 121.66 160.74 123.66 160.77 123.66 159.57 109.03 190.6 88.05 190.58 88.02 174.64 88.02 177.33 90.6 67.1 87.68 76.99 106.61 158.92 113.48"/><path class="cls-1" d="M95.49,26.07l4.22,7,96-2.16,13-12.4H213V16.68l3.36-2.16c-3.52.26-4.72-1.15-5.13-2.32l-22.47-1.56Z" transform="translate(-0.25 -0.25)"/><polygon class="cls-4" points="152.41 121.66 152.41 136.16 165.77 141.28 160.87 124.99 160.77 123.66 160.74 123.66 152.41 121.66"/><polygon class="cls-6" points="159.57 109.03 160.77 123.66 160.87 124.99 218.25 84.09 226.87 76.75 202.53 79.97 190.6 88.05 159.57 109.03"/><polygon class="cls-2" points="218.9 163.83 226.87 166.54 222.05 146.26 160.87 124.99 165.77 141.28 167.25 146.26 173.91 148.52 204.09 158.78 218.9 163.83"/><path class="cls-7" d="M161.12,125.24l61.18,21.27s35.64-38.79,62.3-45.22a80.87,80.87,0,0,1-12.42.31L218.5,84.34Z" transform="translate(-0.25 -0.25)"/><path class="cls-8" d="M174.17,148.77S159.82,205.5,211.45,209c24.6,1.64,37.82-11.74,44.91-26.22h0a80.41,80.41,0,0,0,6-17.15v0l-9.58.21c-2.86.7-5.28,1.3-5.41,1.27l-9.17-1.79-.39,13.09c1.75,10.75-3,14-3,14l-8,1.09c-6.38,1.95-7.63-6.09-7.63-6.09v-1.82l-10.9,9.73c-12.53,1.64-18.18-6.61-20.23-14.63s4.74-12.47,4.74-12.47L204.34,159Z" transform="translate(-0.25 -0.25)"/><path class="cls-4" d="M192.76,168.19s-6.8,4.46-4.74,12.47,7.7,16.27,20.23,14.63l10.9-9.73V164.08L204.34,159Zm1.61,21.92c-5.08-4.53-6.64-11.11-3.46-14.65s9.86-2.76,15,1.77,6.64,11.11,3.46,14.65S199.45,194.67,194.37,190.11Z" transform="translate(-0.25 -0.25)"/><path class="cls-2" d="M190.91,175.46c-3.18,3.54-1.62,10.12,3.46,14.65s11.79,5.34,15,1.77,1.61-10.1-3.46-14.65S194.08,171.89,190.91,175.46ZM197,187.74c-3.83-3.41-5.34-7.91-3.41-10.07s6.59-1.17,10.41,2.24,5.34,7.91,3.41,10.07S200.8,191.16,197,187.74Z" transform="translate(-0.25 -0.25)"/><path class="cls-9" d="M193.59,177.67c-1.93,2.16-.42,6.66,3.41,10.07s8.46,4.43,10.41,2.24.39-6.66-3.41-10.07S195.51,175.48,193.59,177.67Z" transform="translate(-0.25 -0.25)"/><path class="cls-4" d="M211.19,12.2c.41,1.17,1.61,2.58,5.13,2.32L213,16.68v1.84s3.9,2.5,10.1-1.84h1.8v2.08l4.71-.13V16.68l9.11.78h3.25V10.3a3.37,3.37,0,0,0-3.25-3.36,37.91,37.91,0,0,0-7.5,0s-3.46-.23-3.15,3.8h-4.11s.44-2.84-2.81-2.84-9.77-1-10.1,2.84A3.73,3.73,0,0,0,211.19,12.2Z" transform="translate(-0.25 -0.25)"/><path class="cls-2" d="M211,37.71V48.2a11.42,11.42,0,0,0,4.32,4.35l0,0a27.48,27.48,0,0,0,8.57,3.23l14.65,15.51c4-1.95,8.83-4.24,13.88-6.61l-26-26.48-1.83,4.69C212.31,43.49,211,37.71,211,37.71Z" transform="translate(-0.25 -0.25)"/><path class="cls-3" d="M211,22.09V37.71s1.3,5.78,13.58,5.21l1.83-4.69h12.81l2.05,2.27V21.34s-1.2,5.41-13.67,5.41S211,22.09,211,22.09Z" transform="translate(-0.25 -0.25)"/><path class="cls-4" d="M213,20.24a5.43,5.43,0,0,0-2,1.85s4.13,4.66,16.6,4.66,13.67-5.41,13.67-5.41a3.09,3.09,0,0,0-2.6-2.16v2s-1.75,2.66-12.52,2.66-13.2-2.5-13.2-2.5Z" transform="translate(-0.25 -0.25)"/><path class="cls-5" d="M213,20.24v1.1s2.39,2.5,13.2,2.5,12.52-2.66,12.52-2.66V17.46l-9.11-.78v1.95l-4.71.13V16.68h-1.8C216.86,21,213,18.52,213,18.52Z" transform="translate(-0.25 -0.25)"/><path class="cls-3" d="M215.35,52.58l6,6.58,2.61.45v-3.8A27.48,27.48,0,0,1,215.35,52.58Z" transform="translate(-0.25 -0.25)"/><path class="cls-6" d="M238.57,71.32C231.75,74.65,227.12,77,227.12,77l-8.62,7.34,53.68,17.26,65.09-36.89L300.17,50c-8.12,2.39-19.68,2.6-19.68,2.6-5.91,2.21-13.2,5.36-20.46,8.64-2.55,1.18-5.11,2.35-7.58,3.52C247.4,67.08,242.58,69.37,238.57,71.32Z" transform="translate(-0.25 -0.25)"/><path class="cls-2" d="M219.15,185.56v1.82s1.25,8,7.63,6.09V179l4.64-4.79.59-10.11-2.68,1.31-2.21,1.43-8-2.71Z" transform="translate(-0.25 -0.25)"/><path class="cls-4" d="M280.33,157.31l12.5-6.38L290,148.46l3.46-20.41-1.09-1.8c-13.15,7.74-29.05,16.51-29.05,16.51l-41,3.75,4.82,20.28,2.21-1.43s-5.31-13.59-.65-15.7,33.2-4.58,33.2-4.58l.54,18.22s-5.33,1.4-9.66,2.5l9.58-.21,1.83,0Z" transform="translate(-0.25 -0.25)"/><path class="cls-6" d="M222.3,146.51l41-3.75s15.9-8.77,29.05-16.51c9-5.26,16.71-10,17.16-11.19,1.06-2.84-5.65-13.36-5.65-13.36-1.3-2.24-5.21-2.94-13.88-1.19-1.79.36-3.62.59-5.39.78C257.94,107.72,222.3,146.51,222.3,146.51Z" transform="translate(-0.25 -0.25)"/><path class="cls-1" d="M226.42,38.23l26,26.48c2.47-1.17,5-2.34,7.58-3.52L241.28,40.52v0l-2.05-2.27Z" transform="translate(-0.25 -0.25)"/><path class="cls-4" d="M226.78,179v14.52l8-1.09s4.77-3.26,3-14l.39-13.09L232,164.05l-.59,10.11Z" transform="translate(-0.25 -0.25)"/><path class="cls-2" d="M228.68,149.66c-4.66,2.11.65,15.7.65,15.7l2.68-1.31s-.28-5-.33-8,1.53-7.58,8.46-6.67,7.21,8.31,7.21,8.31v9.34c.13,0,2.55-.57,5.41-1.27,4.33-1.1,9.66-2.5,9.66-2.5l-.54-18.22S233.37,147.57,228.68,149.66Z" transform="translate(-0.25 -0.25)"/><path class="cls-4" d="M240.14,149.42c-6.93-.91-8.52,3.67-8.46,6.67s.33,8,.33,8l6.17,1.23,9.17,1.79v-9.34S247.09,150.33,240.14,149.42Zm-6.3,8.49a5.4,5.4,0,1,1,5.39,5.83A5.62,5.62,0,0,1,233.84,157.91Z" transform="translate(-0.25 -0.25)"/><ellipse class="cls-10" cx="238.97" cy="157.66" rx="5.39" ry="5.83"/><path class="cls-1" d="M251.36,9.65,241.28,8.32a3.54,3.54,0,0,1,.65,2v4.29s109.66-9.11,109-11.92S348.78.28,348.78.28L252.06,10.4Z" transform="translate(-0.25 -0.25)"/><path class="cls-4" d="M256.38,182.77l19.89-5.2,4.06-20.26-16.16,8.25-1.83,0v0A80.41,80.41,0,0,1,256.38,182.77Z" transform="translate(-0.25 -0.25)"/><path class="cls-1" d="M350.6,176.73l-22,5.52-68.49,17.29,10.72,9.58,87.24-3.83,21.79-1,7.81-15.86,7-4.32,6.48-4s-14.5-.31-13-5c.34-1.09.49-1.74.57-2.1V173a.21.21,0,0,1,0-.1c.1-.89-.78,1-.78,1H362Z" transform="translate(-0.25 -0.25)"/><path class="cls-2" d="M337.27,64.71,272.18,101.6a80.87,80.87,0,0,0,12.42-.31c1.77-.19,3.6-.42,5.39-.78,8.67-1.75,12.58-1.05,13.88,1.19l48.6-29.18Z" transform="translate(-0.25 -0.25)"/><polygon class="cls-5" points="280.08 157.06 276.02 177.32 285.24 177.32 293.07 151.13 292.58 150.68 280.08 157.06"/><polygon class="cls-4" points="293.07 151.13 285.24 177.32 305.75 162.22 293.07 151.13"/><polygon class="cls-2" points="293.07 151.13 305.75 162.22 328.4 182 350.35 176.48 293.2 127.8 289.74 148.21 292.58 150.68 293.07 151.13"/><path class="cls-4" d="M292.36,126.25l1.09,1.8,14.95.68,0-.68c0-.65,42.52-27.1,42.52-27.1l.65-12.16.88-16.27-48.6,29.18s6.71,10.52,5.65,13.36C309.07,116.2,301.37,121,292.36,126.25Z" transform="translate(-0.25 -0.25)"/><polygon class="cls-1" points="319.5 130.59 317.49 128.89 308.15 128.48 293.2 127.8 350.35 176.48 361.75 173.59 370.21 173.59 333.87 142.77 319.5 130.59"/><polygon class="cls-2" points="299.92 49.7 337.02 64.46 352.22 55.84 320.1 46.03 299.92 49.7"/><path class="cls-11" d="M308.42,128.05l0,.68,9.34.41,2,1.69,28.58-20.35L350,108.6,362.6,94l2.89-3.33L355.44,80.23l.5,4.11-4.35,4.45L350.94,101S308.42,127.4,308.42,128.05Z" transform="translate(-0.25 -0.25)"/><path class="cls-4" d="M319.75,130.83,334.12,143l.23-.26,18.12-15.18a7.77,7.77,0,0,1-2.5-5.39c-.13-7.7,4.46-11.35,4.46-11.35l-6.1-.36Z" transform="translate(-0.25 -0.25)"/><polygon class="cls-6" points="337.02 64.46 352.22 72.27 351.34 88.54 355.68 84.09 355.19 79.97 352.22 55.84 337.02 64.46"/><polygon class="cls-2" points="349.72 108.35 348.08 110.23 354.17 110.59 367.71 111.42 367.19 109.03 349.72 108.35"/><polygon class="cls-12" points="365.24 95.86 362.35 93.72 349.72 108.35 367.19 109.03 375.52 103.51 365.24 95.86"/><path class="cls-5" d="M354.43,110.84s-4.59,3.65-4.46,11.35a7.77,7.77,0,0,0,2.5,5.39,19.21,19.21,0,0,0,6.3,4c-1.32-1-2.18-2.79-2-5.6.76-10.2,11.17-14.32,11.17-14.32Z" transform="translate(-0.25 -0.25)"/><path class="cls-4" d="M356.79,126c-.2,2.81.66,4.56,2,5.6a.09.09,0,0,0,.06,0,32.55,32.55,0,0,0,3.74,1.32l.11,0a19.29,19.29,0,0,0,6.48-.68V111l-1.2.7S357.55,115.79,356.79,126Z" transform="translate(-0.25 -0.25)"/><path class="cls-2" d="M358.12,205.29l18.43,14.76s-2.83,7.81,8.88,13.23L364,287.72l18.23,5.88,24.73-56.31s11.3.86,11.82-7.92V212.56s-.42,5.2-18,3.8-20.83-12-20.83-12Z" transform="translate(-0.25 -0.25)"/><polygon class="cls-12" points="362.35 93.72 365.24 95.86 365.24 90.39 362.35 93.72"/><polygon class="cls-2" points="367.19 109.03 367.71 111.42 368.91 110.72 375.52 106.76 375.52 103.51 367.19 109.03"/><polygon class="cls-2" points="368.91 110.72 368.91 132.04 490.51 134.93 490.51 125.2 484.84 118.06 481.43 113.77 368.91 110.72"/><polygon class="cls-1" points="375.52 106.76 368.91 110.72 481.43 113.77 478.15 109.63 375.52 106.76"/><path class="cls-3" d="M387.72,188.47l-7.81,15.86s3.26,10.62,20.83,12,18-3.8,18-3.8c3.2-9.92,3.57-22.29,3.57-22.29h-1.51v3S403.19,200.68,387.72,188.47Z" transform="translate(-0.25 -0.25)"/><path class="cls-4" d="M394.75,184.15l-7,4.32c15.47,12.21,33.07,4.79,33.07,4.79V181C417.92,182.93,409.41,187.3,394.75,184.15Z" transform="translate(-0.25 -0.25)"/><path class="cls-4" d="M421.88,174.08l.83-.24c11.07,0,9.43-3.28,9.43-3.28a1.72,1.72,0,0,0-.24-.49c-1.74-2.55-10-2.42-10-2.42s2.5,2.16,0,3.8-8.67,0-8.67,0-1.2,2.39-8.25,2.39c0,0-2.76,3.91-9.77,2.61-6.32-1.18-6.45-3.08-6.4-3.41-.08.36-.23,1-.57,2.1-1.49,4.72,13,5,13,5Z" transform="translate(-0.25 -0.25)"/><path class="cls-4" d="M388.79,173c-.05.33.08,2.23,6.4,3.41,7,1.3,9.77-2.61,9.77-2.61,7.05,0,8.25-2.39,8.25-2.39s6.17,1.61,8.67,0,0-3.8,0-3.8c-7.81-4.25-13.56,0-13.56,0a8.67,8.67,0,0,0-6.62,2.6,78,78,0,0,0-7.91,0c-4.27.18-4.9,2.13-5,2.63a.21.21,0,0,0,0,.1Z" transform="translate(-0.25 -0.25)"/><path class="cls-5" d="M401.23,180.17l-6.48,4c14.66,3.15,23.17-1.22,26-3.15a10.45,10.45,0,0,0,1.09-.83v-6.09Z" transform="translate(-0.25 -0.25)"/><path class="cls-1" d="M421.88,174.08v2.37l35.48-2.61,77-14.5-6.82-3.93s-64.77,5.88-95.29,14.53l-.31.13a1.72,1.72,0,0,1,.24.49s1.64,3.28-9.43,3.28Z" transform="translate(-0.25 -0.25)"/><path class="cls-1" d="M479.6,35,469,32.61C470.69,38.47,485.66,74,485.66,74l13,13.46s-.21-5.75,3.9-5.65,7.81,4.35,7.81,4.35l2.19-3.7Z" transform="translate(-0.25 -0.25)"/><path class="cls-2" d="M492.51,137.94c10.46,3.13,17.55,1.95,20.93.94a13.81,13.81,0,0,0,2.34-.94v-2l-7.23-8.07s-14.24.42-18.33-6.09l-.21-3.57h-4.74l-.18.13,5.68,7.14v12C491.36,137.6,491.94,137.79,492.51,137.94Z" transform="translate(-0.25 -0.25)"/><path class="cls-3" d="M490,107.87v10.31l.21,3.57c4.09,6.51,18.33,6.09,18.33,6.09l-5.31-5.91,5.64-10.75c-.31.16-3.67,1.54-13-3.31-3.83-2-4.69-4.24-4.27-6.3h0S490,103.11,490,107.87Z" transform="translate(-0.25 -0.25)"/><path class="cls-4" d="M491.6,101.57c-.42,2.06.44,4.32,4.27,6.3,9.34,4.85,12.7,3.47,13,3.31l0,0,1.09-2.08h0c-7-.83-15.1-5.52-14.87-10.07a6.34,6.34,0,0,1,.81-3.21l-.05-.05S492.2,98.37,491.6,101.57Z" transform="translate(-0.25 -0.25)"/><path class="cls-3" d="M492.51,137.94v4.82c15.2,2.68,20.93,0,20.93,0v-3.88C510.06,139.89,503,141.07,492.51,137.94Z" transform="translate(-0.25 -0.25)"/><path class="cls-5" d="M495.11,99c-.23,4.55,7.84,9.24,14.87,10.07h0l.63-1.2-.78-1.32h0C496.57,101.05,497.48,95,497.48,95a1.53,1.53,0,0,0-1.56.83A6.34,6.34,0,0,0,495.11,99Z" transform="translate(-0.25 -0.25)"/><path class="cls-5" d="M497.48,95s-.91,6.09,12.34,11.59h0L498.68,87.49Z" transform="translate(-0.25 -0.25)"/><path class="cls-4" d="M502.58,81.84c-4.11-.1-3.9,5.65-3.9,5.65l11.17,19.06.78,1.32c12.13,3.7,11.06-4.11,11.06-4.11l-11.3-17.57S506.72,81.94,502.58,81.84Z" transform="translate(-0.25 -0.25)"/><path class="cls-1" d="M508.88,111.18l-5.64,10.75,5.31,5.91,7.23,8.07,19.92,22.18L547.28,171l14.77-1.31-29.42-58-10.94-7.91s1.07,7.81-11.06,4.11l-.63,1.2-1.09,2.08Z" transform="translate(-0.25 -0.25)"/></g></g></svg>