<svg xmlns="http://www.w3.org/2000/svg" width="16.25" height="16.25" viewBox="0 0 16.25 16.25">
  <g id="Icon_ionic-ios-add-circle-outline" data-name="Icon ionic-ios-add-circle-outline" transform="translate(-1.875 -1.875)">
    <path id="Path_2001" data-name="Path 2001" d="M13.535,9.375h-2.91V6.465a.625.625,0,0,0-1.25,0v2.91H6.465A.6.6,0,0,0,5.84,10a.605.605,0,0,0,.625.625h2.91v2.91A.605.605,0,0,0,10,14.16a.622.622,0,0,0,.625-.625v-2.91h2.91a.625.625,0,0,0,0-1.25Z" fill="#0060fe"/>
    <path id="Path_2002" data-name="Path 2002" d="M10,2.969A7.028,7.028,0,1,1,5.027,5.027,6.985,6.985,0,0,1,10,2.969m0-1.094A8.125,8.125,0,1,0,18.125,10,8.124,8.124,0,0,0,10,1.875Z" fill="#0060fe"/>
  </g>
</svg>
