<svg xmlns="http://www.w3.org/2000/svg" width="16.667" height="18.333" viewBox="0 0 16.667 18.333">
  <g id="Icon_feather-share-2" data-name="Icon feather-share-2" transform="translate(-1.667 -0.833)">
    <path id="Path_2067" data-name="Path 2067" d="M17.5,4.167a2.5,2.5,0,1,1-2.5-2.5,2.5,2.5,0,0,1,2.5,2.5Z" fill="none" stroke="#0060fe" stroke-linecap="round" stroke-linejoin="round" stroke-width="1.667"/>
    <path id="Path_2068" data-name="Path 2068" d="M7.5,10A2.5,2.5,0,1,1,5,7.5,2.5,2.5,0,0,1,7.5,10Z" fill="none" stroke="#0060fe" stroke-linecap="round" stroke-linejoin="round" stroke-width="1.667"/>
    <path id="Path_2069" data-name="Path 2069" d="M17.5,15.833a2.5,2.5,0,1,1-2.5-2.5,2.5,2.5,0,0,1,2.5,2.5Z" fill="none" stroke="#0060fe" stroke-linecap="round" stroke-linejoin="round" stroke-width="1.667"/>
    <path id="Path_2070" data-name="Path 2070" d="M7.158,11.258l5.692,3.317" fill="none" stroke="#0060fe" stroke-linecap="round" stroke-linejoin="round" stroke-width="1.667"/>
    <path id="Path_2071" data-name="Path 2071" d="M12.842,5.425,7.158,8.742" fill="none" stroke="#0060fe" stroke-linecap="round" stroke-linejoin="round" stroke-width="1.667"/>
  </g>
</svg>
