<svg xmlns="http://www.w3.org/2000/svg" viewBox="0 0 359.24 187.59"><defs><style>.cls-1{fill:#171723;}.cls-2{fill:#313042;}.cls-3{fill:#f7cc61;}.cls-4{fill:#0f0f19;}.cls-5{fill:#21212d;}.cls-6{fill:#45455b;}.cls-7{fill:#626272;}.cls-8{fill:#c5dede;}.cls-9{fill:#91c1bf;}.cls-10{fill:#d82a2a;}.cls-11{fill:#25252b;}.cls-12{fill:#151519;}</style></defs><title>project drone</title><g id="Layer_2" data-name="Layer 2"><g id="Layer_1-2" data-name="Layer 1"><g id="OBJECTS"><path class="cls-1" d="M.61,3.84s-1.37.72,0,4.08l.07.13L1.59,10h0c.18.31.36.65.58,1A123.5,123.5,0,0,1,8.33,22.54l9,7.36s.76-3.63,3.58-3.11S25.3,30.3,25.3,30.3h2.36S14.13,11.65,9.84,7.3C9.77,7.37,6.13,3.14.61,3.84Z"/><path class="cls-2" d="M7.2,53.17v9.69a7.67,7.67,0,0,0,6,4.24,9.84,9.84,0,0,0,2.1.2H33.9L23.3,57.68c-11,1-15.07-1.65-16-4A1.78,1.78,0,0,1,7.2,53.17Z"/><path class="cls-2" d="M7.18,62.86,20.5,104.48l6.6,3.61-14-40.79,0-.2A7.67,7.67,0,0,1,7.18,62.86Z"/><path class="cls-1" d="M7.2,52.84v.33a1.74,1.74,0,0,0,.13.6c.9,2.3,5,4.91,16,3.95l-1-.87s-9.62.57-12.63-3.28V50.44s-2.33.77-2.5,2.36Z"/><path class="cls-3" d="M9.7,50.44v3.13c3,3.85,12.63,3.28,12.63,3.28l-6.8-6.17,3.14-6.11a14,14,0,0,1-9-3.25Z"/><path class="cls-4" d="M11.46,38.79,9.7,41.28a14,14,0,0,0,9,3.25L20,42.1h0C12.25,42.68,11.46,38.79,11.46,38.79Z"/><path class="cls-5" d="M14.13,36.44s-2.36.48-2.68,2.35c0,0,.79,3.93,8.46,3.31h0l.9-1.75A5.63,5.63,0,0,1,19.64,39C19.4,39.68,14.13,38.52,14.13,36.44Z"/><path class="cls-1" d="M13.13,67.1l-.05.2,14,40.79,4.86-3.46L19.65,67.3H15.22A9.81,9.81,0,0,1,13.13,67.1Z"/><path class="cls-5" d="M14.13,36.44c-.05,2.08,5.26,3.25,5.53,2.51a3.69,3.69,0,0,1-.55-1.83A6.43,6.43,0,0,1,18.43,34a5.77,5.77,0,0,1-1-1.3,6.22,6.22,0,0,0-3.15,3.12.52.52,0,0,0-.06.16A1.58,1.58,0,0,0,14.13,36.44Z"/><path class="cls-1" d="M18.67,44.53l-3.14,6.15,6.8,6.21,1,.87,10.54,9.57,5.82,5.31L51.25,72l-2-3.81-6.33-12.1-3.64-7L35.53,42,29,37.16s.84,2.82-2.44,3.75a7.57,7.57,0,0,1-5.66-.52L20,42.14Z"/><path class="cls-4" d="M17.26,29.93,17,31.71a3.33,3.33,0,0,0,.4,1,5.77,5.77,0,0,0,1,1.3,6.43,6.43,0,0,0,.68,3.08,3.69,3.69,0,0,0,.55,1.83,5.63,5.63,0,0,0,1.17,1.4,7.57,7.57,0,0,0,5.66.52c3.28-.93,2.44-3.75,2.44-3.75L27.59,35a5.34,5.34,0,0,0-2.36-3c.07-1.86,0-1.76,0-1.76s-1.6-3-4.39-3.51S17.26,29.93,17.26,29.93Z"/><polygon class="cls-1" points="39.25 49.08 42.89 56.07 113.38 57.93 111.67 56.28 111.65 56.28 106.32 51.21 39.25 49.08"/><polygon class="cls-2" points="101.61 72.56 101.61 72.6 97.45 77.79 102.78 79.07 102.79 79.07 102.03 69.72 121.87 56.3 121.85 56.28 111.67 56.28 113.38 57.93 42.89 56.07 49.22 68.17 101.61 72.56"/><path class="cls-1" d="M60.89,16.51,63.59,21,125,19.61l8.33-7.93H136V10.5l2.14-1.38c-2.24.17-3-.73-3.28-1.48l-14.36-1Z"/><polygon class="cls-4" points="97.45 77.79 97.45 87.06 105.99 90.34 102.86 79.92 102.79 79.07 102.78 79.07 97.45 77.79"/><polygon class="cls-6" points="102.03 69.72 102.79 79.07 102.86 79.92 139.55 53.77 145.06 49.08 129.5 51.14 121.87 56.3 102.03 69.72"/><polygon class="cls-2" points="139.97 104.76 145.06 106.49 141.98 93.52 102.86 79.92 105.99 90.34 106.94 93.52 111.2 94.97 130.5 101.53 139.97 104.76"/><path class="cls-7" d="M102.86,79.92,142,93.52s22.79-24.8,39.84-28.91a51.35,51.35,0,0,1-7.94.2l-34.33-11Z"/><path class="cls-8" d="M111.2,95S102,131.25,135,133.48c15.73,1.05,24.19-7.51,28.72-16.76h0a52.13,52.13,0,0,0,3.82-11h0l-6.13.13c-1.83.45-3.38.83-3.46.82l-5.86-1.14-.25,8.37c1.11,6.88-1.93,9-1.93,9l-5.11.7c-4.08,1.25-4.88-3.9-4.88-3.9v-1.16l-7,6.22c-8,1-11.62-4.23-12.93-9.35a7.55,7.55,0,0,1,3-8l7.41-5.86Z"/><path class="cls-4" d="M123.13,107.39a7.55,7.55,0,0,0-3,8c1.31,5.12,4.92,10.4,12.93,9.35l7-6.22V104.76l-9.47-3.23Zm1,14c-3.25-2.9-4.25-7.11-2.22-9.37s6.31-1.77,9.58,1.13,4.24,7.11,2.21,9.37-6.33,1.8-9.57-1.11Z"/><path class="cls-2" d="M121.9,112c-2,2.26-1,6.47,2.22,9.37s7.54,3.41,9.57,1.13,1-6.46-2.21-9.37S123.94,109.76,121.9,112Zm3.9,7.85c-2.45-2.18-3.41-5.06-2.18-6.44s4.21-.75,6.66,1.43,3.41,5.06,2.18,6.45S128.23,122.08,125.8,119.89Z"/><path class="cls-9" d="M123.62,113.45c-1.23,1.38-.27,4.26,2.18,6.44s5.41,2.84,6.66,1.44.25-4.27-2.18-6.45S124.85,112.05,123.62,113.45Z"/><path class="cls-4" d="M134.87,7.68c.27.75,1,1.65,3.28,1.48L136,10.54v1.14s2.49,1.6,6.46-1.18h1.14v1.33l3-.08V10.5l5.82.5h2.08V6.42a2.14,2.14,0,0,0-2.08-2.14,24,24,0,0,0-4.79,0s-2.22-.15-2,2.43H143s.29-1.82-1.79-1.82-6.25-.61-6.46,1.82A2.44,2.44,0,0,0,134.87,7.68Z"/><path class="cls-2" d="M134.76,24v6.73a7.3,7.3,0,0,0,2.76,2.78h0A17.25,17.25,0,0,0,143,35.52l9.38,9.93c2.56-1.25,5.64-2.72,8.87-4.23L144.59,24.29l-1.16,3C135.59,27.68,134.76,24,134.76,24Z"/><path class="cls-3" d="M134.76,14V24s.83,3.7,8.69,3.33l1.16-3h8.19l1.32,1.44V13.48s-.77,3.46-8.74,3.46S134.76,14,134.76,14Z"/><path class="cls-4" d="M136,12.78A3.45,3.45,0,0,0,134.76,14s2.64,3,10.62,3,8.75-3.48,8.75-3.48a2,2,0,0,0-1.67-1.38v1.28s-1.11,1.7-8,1.7-8.44-1.6-8.44-1.6Z"/><path class="cls-5" d="M136,12.78v.7s1.53,1.6,8.44,1.6,8-1.7,8-1.7V11l-5.82-.5v1.25l-3,.08V10.5h-1.14c-4,2.78-6.46,1.18-6.46,1.18Z"/><path class="cls-3" d="M137.54,33.46l3.81,4.21L143,38V35.52A17.25,17.25,0,0,1,137.54,33.46Z"/><path class="cls-6" d="M152.39,45.45c-4.36,2.13-7.33,3.62-7.33,3.62l-5.51,4.7,34.33,11L215.5,41.18l-23.72-9.44a58.11,58.11,0,0,1-12.59,1.66c-3.78,1.42-8.44,3.43-13.09,5.53-1.63.75-3.26,1.5-4.84,2.25C158,42.73,155,44.2,152.39,45.45Z"/><path class="cls-2" d="M140,118.5v1.18s.8,5.15,4.88,3.9v-9.29l3-3.07.38-6.45-1.71.83-1.42.91L140,104.78Z"/><path class="cls-4" d="M179.13,100.43l8-4.08-1.81-1.58,2.16-13.09-.7-1.15c-8.41,5-18.58,10.56-18.58,10.56L142,93.48l3.08,13,1.42-.91s-3.4-8.69-.42-10,21.23-2.93,21.23-2.93l.35,11.65s-3.42.9-6.18,1.6l6.13-.13h1.16Z"/><path class="cls-6" d="M142,93.52l26.22-2.39s10.17-5.61,18.58-10.56c5.76-3.36,10.69-6.42,11-7.16.69-1.81-3.61-8.54-3.61-8.54-.83-1.43-3.33-1.88-8.87-.76-1.15.23-2.32.38-3.45.5C164.77,68.68,142,93.52,142,93.52Z"/><path class="cls-1" d="M144.61,24.29l16.65,16.93c1.58-.75,3.21-1.5,4.84-2.25l-12-13.22h0l-1.32-1.44Z"/><path class="cls-4" d="M144.85,114.27v9.29l5.11-.7s3-2.08,1.93-9l.25-8.37-3.95-.78-.38,6.45Z"/><path class="cls-2" d="M146.06,95.54c-3,1.35.42,10,.42,10l1.71-.83s-.18-3.18-.21-5.1,1-4.84,5.41-4.26,4.61,5.31,4.61,5.31v6c.08,0,1.63-.37,3.46-.82,2.76-.7,6.18-1.6,6.18-1.6l-.35-11.65S149.06,94.21,146.06,95.54Z"/><path class="cls-4" d="M153.39,95.39c-4.43-.58-5.45,2.35-5.41,4.26s.21,5.1.21,5.1l3.95.78,5.86,1.15v-6S157.83,96,153.39,95.39Zm-4,5.43a3.46,3.46,0,1,1,3.44,3.73,3.58,3.58,0,0,1-3.47-3.7v0Z"/><ellipse class="cls-10" cx="152.8" cy="100.82" rx="3.45" ry="3.73"/><path class="cls-1" d="M160.56,6l-6.44-.85a2.28,2.28,0,0,1,.41,1.26V9.17s70.13-5.83,69.71-7.62S222.86,0,222.86,0L161,6.49Z"/><path class="cls-4" d="M163.77,116.68l12.72-3.33,2.6-13-10.34,5.33h-1.16A52.13,52.13,0,0,1,163.77,116.68Z"/><path class="cls-1" d="M224,112.85l-14,3.53-43.8,11.06,6.86,6.12,55.78-2.44,13.94-.62,5-10.14,4.5-2.76,4.14-2.55s-9.27-.2-8.32-3.21c.22-.7.32-1.12.37-1.35h0v-.07c.07-.57-.5.61-.5.61H231.31Z"/><path class="cls-2" d="M215.5,41.22,173.88,64.81a51.35,51.35,0,0,0,7.94-.2c1.13-.12,2.3-.27,3.45-.5,5.54-1.12,8-.67,8.87.76l31.08-18.66Z"/><polygon class="cls-5" points="179.09 100.43 176.49 113.39 182.39 113.39 187.4 96.64 187.08 96.36 179.09 100.43"/><polygon class="cls-4" points="187.4 96.64 182.39 113.39 195.51 103.73 187.4 96.64"/><polygon class="cls-2" points="187.4 96.64 195.51 103.73 209.99 116.38 224.02 112.85 187.48 81.72 185.27 94.77 187.08 96.36 187.4 96.64"/><path class="cls-4" d="M186.78,80.57l.7,1.15,9.56.43v-.47c0-.41,27.19-17.33,27.19-17.33l.42-7.77.56-10.41-31.08,18.7s4.3,6.73,3.61,8.54C197.47,74.15,192.54,77.21,186.78,80.57Z"/><polygon class="cls-1" points="204.3 83.5 203.01 82.42 197.04 82.15 187.48 81.72 224.02 112.85 231.32 111 236.73 111 213.49 91.29 204.3 83.5"/><polygon class="cls-2" points="191.78 31.78 215.5 41.22 225.22 35.71 204.68 29.43 191.78 31.78"/><path class="cls-11" d="M197.05,81.68v.43l6,.27,1.29,1.08,18.27-13,1-1.19,8.08-9.36,1.85-2.13-6.46-6.64.32,2.63-2.78,2.85-.42,7.77S197.05,81.31,197.05,81.68Z"/><path class="cls-4" d="M204.3,83.5l9.18,7.79.15-.16,11.59-9.71a5,5,0,0,1-1.6-3.44,9.22,9.22,0,0,1,2.85-7.26l-3.9-.24Z"/><polygon class="cls-6" points="215.5 41.22 225.22 46.21 224.65 56.62 227.44 53.77 227.12 51.14 225.22 35.71 215.5 41.22"/><polygon class="cls-2" points="223.62 69.28 222.57 70.48 226.47 70.72 235.13 71.25 234.79 69.72 223.62 69.28"/><polygon class="cls-12" points="233.55 61.3 231.7 59.93 223.62 69.28 234.79 69.72 240.12 66.19 233.55 61.3"/><path class="cls-5" d="M226.47,70.68a9.22,9.22,0,0,0-2.85,7.26,5,5,0,0,0,1.6,3.44,12.08,12.08,0,0,0,4,2.57A3.87,3.87,0,0,1,228,80.37c.49-6.53,7.15-9.16,7.15-9.16Z"/><path class="cls-4" d="M228,80.41A3.87,3.87,0,0,0,229.25,84h0a20.1,20.1,0,0,0,2.4.85h.07a12.33,12.33,0,0,0,4.14-.43V70.8l-.76.45S228.47,73.88,228,80.41Z"/><path class="cls-2" d="M228.83,131.12l11.79,9.43s-1.81,5,5.68,8.46l-13.74,34.81,11.66,3.77,15.81-36s7.23.55,7.56-5.07V135.76s-.27,3.33-11.5,2.43-13.32-7.69-13.32-7.69Z"/><polygon class="cls-12" points="231.7 59.93 233.55 61.3 233.55 57.8 231.7 59.93"/><polygon class="cls-2" points="234.79 69.72 235.13 71.25 235.89 70.8 240.12 68.27 240.12 66.19 234.79 69.72"/><polygon class="cls-2" points="235.89 70.8 235.89 84.43 313.65 86.28 313.65 80.06 310.02 75.49 307.84 72.75 235.89 70.8"/><polygon class="cls-1" points="240.12 68.27 235.89 70.8 307.84 72.75 305.75 70.1 240.12 68.27"/><path class="cls-3" d="M247.76,120.36l-5,10.14s2.08,6.79,13.32,7.69,11.5-2.43,11.5-2.43a60.28,60.28,0,0,0,2.28-14.25h-1v1.91S257.65,128.17,247.76,120.36Z"/><path class="cls-4" d="M252.26,117.6l-4.5,2.76c9.89,7.81,21.15,3.06,21.15,3.06v-7.84C267.07,116.82,261.63,119.61,252.26,117.6Z"/><path class="cls-4" d="M269.6,111.15l.54-.15c7.07,0,6-2.09,6-2.09a1,1,0,0,0-.15-.32c-1.11-1.63-6.41-1.55-6.41-1.55s1.6,1.38,0,2.43-5.54,0-5.54,0-.76,1.53-5.28,1.53c0,0-1.76,2.5-6.24,1.67-4-.75-4.13-2-4.09-2.18-.05.23-.15.65-.37,1.35-.95,3,8.32,3.21,8.32,3.21Z"/><path class="cls-4" d="M248.45,110.49c0,.22.05,1.43,4.09,2.18,4.48.83,6.24-1.67,6.24-1.67,4.52,0,5.28-1.53,5.28-1.53s3.95,1,5.54,0,0-2.43,0-2.43c-5-2.71-8.67,0-8.67,0a5.59,5.59,0,0,0-4.23,1.67,47.45,47.45,0,0,0-5.06,0c-2.73.11-3.13,1.36-3.18,1.68v.1Z"/><path class="cls-5" d="M256.4,115.05l-4.14,2.55c9.37,2,14.81-.78,16.65-2a5.76,5.76,0,0,0,.69-.53v-3.9Z"/><path class="cls-1" d="M269.6,111.15v1.53L292.3,111l49.21-9.27-4.38-2.52s-41.41,3.76-60.93,9.29l-.2.08a1,1,0,0,1,.15.32s1.05,2.09-6,2.09Z"/><path class="cls-1" d="M306.51,22.21l-6.79-1.53c1.1,3.75,10.67,26.49,10.67,26.49l8.33,8.6s-.14-3.68,2.49-3.61,5,2.78,5,2.78l1.4-2.36Z"/><path class="cls-2" d="M314.77,88.05c6.69,2,11.22,1.25,13.38.6a8.1,8.1,0,0,0,1.5-.6v-1.3L325,81.59s-9.11.26-11.72-3.9l-.14-2.28h-3l-.11.09,3.62,4.56v7.62A8.74,8.74,0,0,0,314.77,88.05Z"/><path class="cls-3" d="M313.13,68.82v6.59l.14,2.28c2.61,4.16,11.72,3.9,11.72,3.9l-3.4-3.78,3.61-6.88c-.2.1-2.35,1-8.32-2.11-2.45-1.27-3-2.71-2.73-4h0S313.13,65.77,313.13,68.82Z"/><path class="cls-4" d="M314.19,64.79c-.27,1.32.28,2.76,2.73,4,6,3.1,8.12,2.21,8.32,2.11h0l.7-1.33h0c-4.49-.54-9.65-3.53-9.51-6.45a4,4,0,0,1,.52-2h0S314.57,62.74,314.19,64.79Z"/><path class="cls-3" d="M314.77,88.05v3.08c9.72,1.71,13.38,0,13.38,0V88.68C326,89.3,321.46,90.05,314.77,88.05Z"/><path class="cls-5" d="M316.43,63.14c-.14,2.92,5,5.91,9.51,6.45h0l.4-.77-.5-.85h0c-8.47-3.51-7.89-7.41-7.89-7.41a1,1,0,0,0-1,.53A4,4,0,0,0,316.43,63.14Z"/><path class="cls-5" d="M318,60.56s-.58,3.9,7.89,7.41h0L318.7,55.78Z"/><path class="cls-4" d="M321.21,52.17c-2.63-.07-2.49,3.61-2.49,3.61L325.86,68l.5.85c7.75,2.36,7.07-2.63,7.07-2.63L326.21,55S323.86,52.24,321.21,52.17Z"/><path class="cls-1" d="M325.24,70.93l-3.61,6.88,3.4,3.78,4.62,5.16,12.74,14.18,7.41,8.26,9.44-.83L340.42,71.25l-7-5.06s.68,5-7.07,2.63l-.4.77-.7,1.33Z"/></g></g></g></svg>