<svg xmlns="http://www.w3.org/2000/svg" width="284.235" height="186.231" viewBox="0 0 284.235 186.231">
  <g id="_4675955" data-name="4675955" transform="translate(-63.3 -56.431)">
    <g id="OBJECTS" transform="translate(63.3 56.431)">
      <path id="Path_7419" data-name="Path 7419" d="M171.8,179.4,118.4,84.65l-53.437,92.6" transform="translate(-64.177 -71.344)" fill="none" stroke="#998771" stroke-miterlimit="10" stroke-width="1"/>
      <path id="Path_7420" data-name="Path 7420" d="M545.437,220.047l-53.4-94.747L438.6,217.9" transform="translate(-261.638 -92.827)" fill="none" stroke="#998771" stroke-miterlimit="10" stroke-width="1"/>
      <path id="Path_7421" data-name="Path 7421" d="M170.92,271.5c0,6.945-14.009,31.436-53.81,31.436-41.965,0-53.81-24.491-53.81-31.436s24.09-12.575,53.81-12.575S170.92,264.55,170.92,271.5Z" transform="translate(-63.3 -163.442)" fill="#2387c9"/>
      <path id="Path_7422" data-name="Path 7422" d="M123.919,304.773c-41.965,0-53.81-24.5-53.81-31.441a3.145,3.145,0,0,1,.132-.882c-4.418,1.825-6.941,3.932-6.941,6.182,0,6.945,11.826,31.436,53.81,31.436,21.718,0,35.755-7.29,44.026-15.046C152.653,300.529,140.535,304.773,123.919,304.773Z" transform="translate(-63.3 -170.593)" fill="#3498db"/>
      <path id="Path_8449" data-name="Path 8449" d="M53.81,0c29.718,0,53.81,5.63,53.81,12.575,0,3.181-5.054,6.086-13.514,8.334-9.734,2.587-24.188,4.241-40.3,4.241C24.092,25.151,0,19.521,0,12.575S24.092,0,53.81,0Z" transform="translate(0 95.478)" fill="rgba(136,200,246,0.37)"/>
      <path id="Path_7905" data-name="Path 7905" d="M545.38,312.085c0,6.945-14.009,31.436-53.81,31.436a79.61,79.61,0,0,1-26.883-4.205c-20.406-7.264-26.927-22.077-26.927-27.231,0-6.945,24.09-12.575,53.81-12.575S545.38,305.14,545.38,312.085Z" transform="translate(-261.194 -184.893)" fill="#2387c9"/>
      <path id="Path_7906" data-name="Path 7906" d="M498.389,345.393c-41.965,0-53.81-24.5-53.81-31.436a3.154,3.154,0,0,1,.132-.886c-4.418,1.825-6.941,3.932-6.941,6.182,0,6.945,11.826,31.436,53.81,31.436,21.718,0,35.755-7.29,44.026-15.046C527.123,341.121,515.005,345.393,498.389,345.393Z" transform="translate(-261.2 -192.059)" fill="#3498db"/>
      <ellipse id="Ellipse_459" data-name="Ellipse 459" cx="53.81" cy="12.575" rx="53.81" ry="12.575" transform="translate(176.57 114.617)" fill="#489fda"/>
      <path id="Path_7908" data-name="Path 7908" d="M639.885,306.059a.074.074,0,0,1,0-.033.085.085,0,0,1,.047,0h.038a.061.061,0,0,1,.038,0l.071.061.057.047h.038a.14.14,0,0,1,.038.038.052.052,0,0,1,0,.033.062.062,0,0,1,0,.038.066.066,0,0,1,0,.042.088.088,0,0,1,0,.033.169.169,0,0,1-.033.047H640a.094.094,0,0,1-.038-.038.12.12,0,0,1,0-.033h0l-.038-.071-.057-.08h0a.052.052,0,0,1,0-.038.038.038,0,0,1,.019-.047Z" transform="translate(-368.001 -188.335)" fill="#fff"/>
      <path id="Path_7909" data-name="Path 7909" d="M640.133,308.69a.113.113,0,1,1-.113.113.113.113,0,0,1,.113-.113Z" transform="translate(-368.084 -189.745)" fill="#fff"/>
      <path id="Path_7935" data-name="Path 7935" d="M352.21,84.378h0a29.81,29.81,0,0,1-21.218-4.135l-13.453-8.487a68.9,68.9,0,0,0-41.965-4.083h0a68.842,68.842,0,0,1-42.064-4.126l-3.3-1.415a68.842,68.842,0,0,0-40.985-4.352l-13.707,5.375a26.943,26.943,0,0,1-21.3-.679h0l-1.594,2.461,3.447,1.886A26.9,26.9,0,0,0,174.4,69.652l14.825-2.975a68.842,68.842,0,0,1,40.985,4.352l3.3,1.415a68.842,68.842,0,0,0,42.064,4.126h0a68.842,68.842,0,0,1,41.965,4.083l13.424,5.809a29.824,29.824,0,0,0,20.323,1.217l1.83-.542Z" transform="translate(-110.504 -56.431)" fill="#194168"/>
      <path id="Path_7936" data-name="Path 7936" d="M279.084,408.92l-3.9,9.232c0,5.1,21.586,10.793,43.38,10.793s43.38-5.7,43.38-10.793l-3.857-9.232Z" transform="translate(-175.274 -242.714)" fill="#194168"/>
      <ellipse id="Ellipse_460" data-name="Ellipse 460" cx="39.495" cy="9.232" rx="39.495" ry="9.232" transform="translate(103.81 156.973)" fill="rgba(25,65,104,0.82)"/>
      <path id="Path_7937" data-name="Path 7937" d="M366.593,406.312c0,.67-2.325,1.212-5.187,1.212s-5.187-.542-5.187-1.212,2.32-1.212,5.187-1.212S366.593,405.642,366.593,406.312Z" transform="translate(-218.102 -240.695)" fill="#ee7635"/>
      <rect id="Rectangle_852" data-name="Rectangle 852" width="10.369" height="140.843" transform="translate(138.123 24.773)" fill="#194168"/>
      <path id="Path_7938" data-name="Path 7938" d="M365.992,144.828c0,1.311-4.55,2.358-10.166,2.358s-10.166-1.066-10.166-2.358,4.55-2.358,10.166-2.358S365.992,143.517,365.992,144.828Z" transform="translate(-212.521 -101.901)" fill="#194168"/>
      <path id="Path_8450" data-name="Path 8450" d="M0,0H20.327V36.364H0Z" transform="translate(133.139 6.563)" fill="#ee7635"/>
      <path id="Path_7939" data-name="Path 7939" d="M365.992,67.708c0,1.311-4.55,2.358-10.166,2.358S345.66,69,345.66,67.708s4.55-2.358,10.166-2.358S365.992,66.392,365.992,67.708Z" transform="translate(-212.521 -61.145)" fill="#194168"/>
      <ellipse id="Ellipse_461" data-name="Ellipse 461" cx="13.462" cy="3.145" rx="13.462" ry="3.145" transform="translate(129.843 159.817)" fill="#ef722e"/>
      <rect id="Rectangle_854" data-name="Rectangle 854" width="26.919" height="5.72" transform="translate(129.843 157.242)" fill="rgba(238,118,53,0.9)"/>
      <ellipse id="Ellipse_462" data-name="Ellipse 462" cx="13.462" cy="3.145" rx="13.462" ry="3.145" transform="translate(129.843 154.097)" fill="#ef722e"/>
    </g>
  </g>
</svg>
