<svg xmlns="http://www.w3.org/2000/svg" width="279.435" height="279.374" viewBox="0 0 279.435 279.374">
  <g id="_3875658" data-name="3875658" transform="translate(-160.99 -77.24)">
    <g id="OBJECTS" transform="translate(160.99 77.24)">
      <rect id="Rectangle_845" data-name="Rectangle 845" width="12.962" height="250.081" transform="translate(9.149 20.205)" fill="#0c3757"/>
      <path id="Path_7139" data-name="Path 7139" d="M192.067,103.544H160.99l15.539-26.3Z" transform="translate(-160.99 -77.24)" fill="#0c3757"/>
      <rect id="Rectangle_846" data-name="Rectangle 846" width="250.081" height="12.962" transform="translate(9.149 257.263)" fill="#0c3757"/>
      <path id="Path_7140" data-name="Path 7140" d="M326.99,240.08v31.062l26.3-15.523Z" transform="translate(-73.859 8.232)" fill="#0c3757"/>
      <rect id="Rectangle_847" data-name="Rectangle 847" width="40.791" height="92.011" transform="translate(29.674 165.267)" fill="#88c8f6"/>
      <rect id="Rectangle_848" data-name="Rectangle 848" width="40.791" height="131.704" transform="translate(85.348 125.559)" fill="#f9d750"/>
      <rect id="Rectangle_849" data-name="Rectangle 849" width="40.791" height="165.541" transform="translate(140.991 91.737)" fill="#3f8e68"/>
      <rect id="Rectangle_850" data-name="Rectangle 850" width="40.791" height="204.289" transform="translate(196.664 52.99)" fill="#3498db"/>
      <path id="Path_7141" data-name="Path 7141" d="M318.6,136.395l28.409,12.58-3.553-30.345Z" transform="translate(-78.263 -55.515)" fill="#ee7635"/>
      <path id="Path_7142" data-name="Path 7142" d="M189.933,265.223h-.823l.168-12.2a284.176,284.176,0,0,0,83.533-14.486c59.181-19.7,100.505-55.414,122.829-106.147L406.8,137.3c-23.468,53.371-68.62,92.423-130.515,112.933a293.86,293.86,0,0,1-86.354,14.99Z" transform="translate(-146.245 -48.308)" fill="#ee7635"/>
    </g>
  </g>
</svg>
