<svg xmlns="http://www.w3.org/2000/svg" xmlns:xlink="http://www.w3.org/1999/xlink" width="280.761" height="224.403" viewBox="0 0 280.761 224.403">
  <defs>
    <linearGradient id="linear-gradient" x2="1" y2="1" gradientUnits="objectBoundingBox">
      <stop offset="0" stop-color="#dbd0a2"/>
      <stop offset="0.33" stop-color="#e4daaf"/>
      <stop offset="0.93" stop-color="#fcf4d1"/>
      <stop offset="1" stop-color="#fff7d6"/>
    </linearGradient>
    <linearGradient id="linear-gradient-2" x2="1" y2="1" gradientUnits="objectBoundingBox">
      <stop offset="0" stop-color="#dbd0a2"/>
      <stop offset="0.32" stop-color="#dfd4a6"/>
      <stop offset="0.66" stop-color="#ebe0b3"/>
      <stop offset="1" stop-color="#fff4c7"/>
    </linearGradient>
  </defs>
  <g id="measure_final" data-name="measure final" transform="translate(-510 -251.44)">
    <g id="Layer_1" data-name="Layer 1" transform="translate(272 1)">
      <path id="Path_8023" data-name="Path 8023" d="M251.462,398.909h253.88a13.419,13.419,0,0,0,13.419-13.419H238a13.419,13.419,0,0,0,13.462,13.419Z" transform="translate(0 55.515)" fill="#0c3757"/>
      <path id="Path_8024" data-name="Path 8024" d="M320.4,310.134l19.487-44.279,18.175,44.279h9.609l-20.376-49.656a9.3,9.3,0,0,1-14.7-.1l-21.9,49.754Z" transform="translate(29.881 4.086)" fill="#0c3757"/>
      <path id="Path_8025" data-name="Path 8025" d="M369.614,297.82h-9.609l.226.536H319.437l.24-.536h-9.708v.085h-.818V417.027h8.89V388.806l45.479,31.834A4.459,4.459,0,0,0,370.574,417V297.9h-.96Zm-51.561,13.8L352.583,337.1H318Zm0,38.748,34.529,25.484H318Zm43.588,58.122-33.936-23.748h33.936Zm0-37L327.056,346.05h34.529Zm0-38.748-34.585-25.5h34.529Z" transform="translate(29.248 19.477)" fill="#0c3757"/>
      <rect id="Rectangle_889" data-name="Rectangle 889" width="83.437" height="9.412" transform="translate(328.196 431.537)" fill="#b83629"/>
      <path id="Path_8026" data-name="Path 8026" d="M290.29,292.36v15.522H431.708V292.36Zm120.943,7.7H292.35a1.538,1.538,0,1,1,0-3.076H411.233a1.538,1.538,0,1,1,0,3.076Z" transform="translate(21.495 17.232)" fill="#0c3757"/>
      <path id="Path_8027" data-name="Path 8027" d="M435.161,295.41H288.41a10.964,10.964,0,0,1,0,6.957H435.161A10.865,10.865,0,0,1,435.161,295.41Zm-23.156,3.4H293.123a1.538,1.538,0,1,1,0-3.076H412.006a1.538,1.538,0,1,1,0,3.076Z" transform="translate(20.722 18.486)" fill="#0c3757"/>
      <path id="Path_8028" data-name="Path 8028" d="M402,304.6v16.157h2.822V301.72A8.551,8.551,0,0,1,402,304.6Z" transform="translate(67.416 21.08)" fill="#0c3757"/>
      <path id="Path_8029" data-name="Path 8029" d="M281.37,306.084a12.094,12.094,0,0,1,1.27-.127,9.879,9.879,0,0,1,2.653.381l57.713-47.652a11.175,11.175,0,0,1-.071-3.626Z" transform="translate(17.828 1.899)" fill="#0c3757"/>
      <path id="Path_8030" data-name="Path 8030" d="M277.1,302.17v36.236h2.822V304.541a8.339,8.339,0,0,1-2.822-2.371Z" transform="translate(16.073 21.265)" fill="#0c3757"/>
      <path id="Path_8031" data-name="Path 8031" d="M337.48,253.54a10.371,10.371,0,0,1,.691,3.824l80.741,50.516a8.991,8.991,0,0,1,3.387-1.016Z" transform="translate(40.893 1.274)" fill="#0c3757"/>
      <path id="Path_8032" data-name="Path 8032" d="M400.611,332.46a5.038,5.038,0,0,1-1.1,2.822h8.918a5.051,5.051,0,0,1-1.115-2.822Z" transform="translate(66.392 33.716)" fill="#0c3757"/>
      <path id="Path_8033" data-name="Path 8033" d="M407.184,315.091a1.391,1.391,0,0,0-2.554-.042l-8.72,19.614a5.233,5.233,0,0,1,1.411-.212,5,5,0,0,1,1.566.254l6.914-15.522,6.308,15.409a5.122,5.122,0,0,1,3.034.1Z" transform="translate(64.912 26.222)" fill="#0c3757"/>
      <rect id="Rectangle_890" data-name="Rectangle 890" width="2.766" height="6.449" transform="translate(468.809 367.587)" fill="#0c3757"/>
      <path id="Path_8034" data-name="Path 8034" d="M412.832,340.021a2.625,2.625,0,0,1,2.625,2.625v3.471l-5.066,7.055h-9.228l-5.066-7.055v-3.471a2.639,2.639,0,0,1,2.639-2.625Zm0-1.411H398.722a4.022,4.022,0,0,0-4.022,4.007v3.923l5.743,7.944h10.639l5.757-7.944v-3.923a4.022,4.022,0,0,0-4.022-4.007Z" transform="translate(64.415 36.244)" fill="#0c3757"/>
      <path id="Path_8035" data-name="Path 8035" d="M397.11,338.743a4.586,4.586,0,0,1,.635-.113h3.02l12.093,12.093-1.595,2.187Z" transform="translate(65.406 36.252)" fill="#0c3757"/>
      <path id="Path_8036" data-name="Path 8036" d="M405.962,338.63l7.8,7.817v.113l-1.524,2.117L402.18,338.63Z" transform="translate(67.49 36.252)" fill="#0c3757"/>
      <path id="Path_8037" data-name="Path 8037" d="M410.345,354.122h-3.768L394.71,342.255a4.007,4.007,0,0,1,1.072-2.7Z" transform="translate(64.419 36.635)" fill="#0c3757"/>
      <path id="Path_8038" data-name="Path 8038" d="M405.841,373.233c4.769,0,9.6-3.189,9.6-10.329,0-4.911-2.822-7.846-5-9.99-1.185-1.2-2.2-2.244-2.2-3.034h-6.166c0,3.316,2.1,5.461,3.965,7.352s3.231,3.4,3.231,5.644c0,2.822-1.129,4.163-3.429,4.163a3.584,3.584,0,0,1-3.57-3.584h-6.18A9.765,9.765,0,0,0,405.841,373.233Z" transform="translate(64.986 40.877)" fill="#0c3757"/>
      <path id="Path_8039" data-name="Path 8039" d="M401.957,333.089a3.753,3.753,0,1,1-3.753-3.739,3.753,3.753,0,0,1,3.753,3.739Z" transform="translate(64.312 32.438)" fill="#0c3757"/>
      <path id="Path_8040" data-name="Path 8040" d="M413.107,333.089a3.753,3.753,0,1,1-3.739-3.739A3.753,3.753,0,0,1,413.107,333.089Z" transform="translate(68.896 32.438)" fill="#0c3757"/>
      <path id="Path_8041" data-name="Path 8041" d="M333.852,250.44a8.142,8.142,0,1,0,8.142,8.142,8.142,8.142,0,0,0-8.142-8.142Zm0,14.111a2.481,2.481,0,1,1,0,.014Z" transform="translate(36.055 0)" fill="#0c3757"/>
      <path id="Path_8042" data-name="Path 8042" d="M332.5,253.74a3.485,3.485,0,1,0,3.485,3.485,3.485,3.485,0,0,0-3.485-3.485Zm0,5.546a2.06,2.06,0,1,1,2.06-2.06,2.06,2.06,0,0,1-2.06,2.06Z" transform="translate(37.412 1.357)" fill="#0c3757"/>
      <path id="Path_8043" data-name="Path 8043" d="M400.682,292.11a8.142,8.142,0,1,0,8.142,8.142A8.142,8.142,0,0,0,400.682,292.11Zm0,14.111a2.479,2.479,0,1,1,0,.014Z" transform="translate(63.527 17.129)" fill="#0c3757"/>
      <path id="Path_8044" data-name="Path 8044" d="M399.329,295.41a3.471,3.471,0,1,0,2.46,1.022A3.485,3.485,0,0,0,399.329,295.41Zm0,5.546a2.06,2.06,0,1,1,2.06-2.06A2.06,2.06,0,0,1,399.329,300.956Z" transform="translate(64.879 18.486)" fill="#0c3757"/>
      <path id="Path_8045" data-name="Path 8045" d="M284.7,292.11a8.142,8.142,0,1,0,8.142,8.142A8.142,8.142,0,0,0,284.7,292.11Zm0,14.111a2.481,2.481,0,1,1,0,.014Z" transform="translate(15.851 17.129)" fill="#0c3757"/>
      <path id="Path_8046" data-name="Path 8046" d="M283.345,295.41a3.485,3.485,0,1,0,3.485,3.485A3.485,3.485,0,0,0,283.345,295.41Zm0,5.546a2.06,2.06,0,1,1,2.06-2.06,2.06,2.06,0,0,1-2.06,2.06Z" transform="translate(17.207 18.486)" fill="#0c3757"/>
      <path id="Path_8047" data-name="Path 8047" d="M271.63,340.413l8.2-13.6,1.806,1.27Z" transform="translate(13.824 31.394)" fill="#0c3757"/>
      <path id="Path_8048" data-name="Path 8048" d="M287.459,340.413,277.44,328.08l1.806-1.27Z" transform="translate(16.213 31.394)" fill="#0c3757"/>
      <rect id="Rectangle_891" data-name="Rectangle 891" width="25.117" height="6.068" transform="translate(281.997 387.272)" fill="#0c3757"/>
      <rect id="Rectangle_892" data-name="Rectangle 892" width="25.117" height="6.068" transform="translate(281.997 395.075)" fill="#0c3757"/>
      <rect id="Rectangle_893" data-name="Rectangle 893" width="25.117" height="6.068" transform="translate(281.997 379.539)" fill="#0c3757"/>
      <rect id="Rectangle_894" data-name="Rectangle 894" width="25.117" height="6.068" transform="translate(281.997 371.806)" fill="#0c3757"/>
      <path id="Path_8049" data-name="Path 8049" d="M421.4,365.9a4.628,4.628,0,1,0,4.614,4.614A4.628,4.628,0,0,0,421.4,365.9Zm-1.863,4.614a1.707,1.707,0,1,1,1.242-.449A1.722,1.722,0,0,1,419.54,370.514Z" transform="translate(73.483 47.462)" fill="#0c3757"/>
      <rect id="Rectangle_895" data-name="Rectangle 895" width="4.515" height="16.397" transform="translate(492.614 424.552)" fill="#0c3757"/>
      <path id="Path_8050" data-name="Path 8050" d="M415.979,383.742a14.249,14.249,0,0,1-1.411-1.2l4.036-4.233a9.25,9.25,0,0,0,.8.677Zm15.762,0-3.443-4.7a6.288,6.288,0,0,0,.8-.691l4.064,4.233a12.815,12.815,0,0,1-1.425,1.1Zm-20.912-7.521a13.14,13.14,0,0,1-.339-1.834l5.8-.649a8.465,8.465,0,0,0,.184,1.044Zm26.02-.085-5.644-1.411a8.459,8.459,0,0,0,.183-1.044l5.814.437v.226a13.929,13.929,0,0,1-.353,1.736ZM417,369.632l-5.263-2.568a11.519,11.519,0,0,1,.931-1.623l4.84,3.231a6.384,6.384,0,0,0-.508.9Zm13.617-.113a6.508,6.508,0,0,0-.536-.917l4.8-3.316a12.3,12.3,0,0,1,.945,1.609Zm-9.878-3.514-2.469-5.362a12.423,12.423,0,0,1,1.75-.663l1.651,5.644a6.4,6.4,0,0,0-.974.324Zm6.152,0a7.428,7.428,0,0,0-.988-.353l1.552-5.644a10.894,10.894,0,0,1,1.764.621Z" transform="translate(70.906 45.029)" fill="#0c3757"/>
      <path id="Path_8051" data-name="Path 8051" d="M257.352,365.9a4.628,4.628,0,1,0,4.614,4.614A4.628,4.628,0,0,0,257.352,365.9Zm-1.863,4.614a1.793,1.793,0,1,0-.028,0Z" transform="translate(6.047 47.462)" fill="#0c3757"/>
      <rect id="Rectangle_896" data-name="Rectangle 896" width="4.53" height="16.397" transform="translate(261.113 424.552)" fill="#0c3757"/>
      <path id="Path_8052" data-name="Path 8052" d="M251.923,383.751a12.963,12.963,0,0,1-1.411-1.2l4.036-4.233a9.461,9.461,0,0,0,.818.677Zm15.748,0-3.5-4.755a6.42,6.42,0,0,0,.818-.691l4.05,4.233a11.659,11.659,0,0,1-1.369,1.157Zm-20.912-7.521a13.135,13.135,0,0,1-.339-1.834l5.8-.649a6.5,6.5,0,0,0,.2,1.044Zm26.034-.085-5.644-1.411a6.456,6.456,0,0,0,.183-1.044l5.814.437v.226a13.838,13.838,0,0,1-.353,1.736Zm-19.91-6.561-5.221-2.512a11.514,11.514,0,0,1,.931-1.623l4.854,3.231a6.431,6.431,0,0,0-.564.9Zm13.617-.113a6.5,6.5,0,0,0-.536-.917l4.8-3.316a14.23,14.23,0,0,1,.96,1.609Zm-9.878-3.514-2.413-5.306a13.123,13.123,0,0,1,1.75-.663l1.651,5.644a6.4,6.4,0,0,0-.988.325Zm6.152,0a7.441,7.441,0,0,0-.988-.353l1.552-5.644a10.891,10.891,0,0,1,1.764.621Z" transform="translate(3.461 45.021)" fill="#0c3757"/>
      <path id="Path_8448" data-name="Path 8448" d="M0,0H7.973V44.463H0Z" transform="translate(403.208 466.588) rotate(90)" fill="#f39c12"/>
      <rect id="Rectangle_898" data-name="Rectangle 898" width="2.427" height="44.463" transform="translate(403.194 472.119) rotate(90)" fill="#e67e22"/>
      <rect id="Rectangle_899" data-name="Rectangle 899" width="2.427" height="44.463" transform="translate(403.208 466.574) rotate(90)" fill="#ee7635"/>
      <path id="Path_8053" data-name="Path 8053" d="M317.85,408.732v-2.258l8.071-2.865v7.973Z" transform="translate(32.824 62.964)" fill="#f1d874"/>
      <path id="Path_8054" data-name="Path 8054" d="M318.89,405.64l-3.57,1.129,3.57,1.129Z" transform="translate(31.784 63.798)" fill="#34495e"/>
      <rect id="Rectangle_900" data-name="Rectangle 900" width="8.537" height="4.318" transform="translate(407.526 466.292) rotate(90)" fill="#bdc3c7"/>
      <rect id="Rectangle_901" data-name="Rectangle 901" width="4.318" height="1.834" transform="translate(403.208 473.008)" fill="#95a5a6"/>
      <rect id="Rectangle_902" data-name="Rectangle 902" width="4.318" height="1.834" transform="translate(403.208 468.338)" fill="#ecf0f1"/>
      <path id="Path_8055" data-name="Path 8055" d="M362.811,409.911v-2.949l-1.961-3.3H358.14v7.973h3.02a1.651,1.651,0,0,0,1.651-1.722Z" transform="translate(49.386 62.984)" fill="#2ecc71"/>
      <path id="Path_8056" data-name="Path 8056" d="M362.811,406.472l-1.058-1.792H358.14v2.342h4.671Z" transform="translate(49.386 63.404)" fill="#39ff8d"/>
      <path id="Path_8057" data-name="Path 8057" d="M362.811,408.464V407.18a2.145,2.145,0,0,1-1.863,1.185h-1.595a1.99,1.99,0,0,1-1.214-.409v2.159h3.02a1.651,1.651,0,0,0,1.651-1.651Z" transform="translate(49.386 64.431)" fill="#27ae60"/>
      <path id="Path_8058" data-name="Path 8058" d="M325.921,404.48l-8.071,2.229h8.071Z" transform="translate(32.824 63.321)" fill="#ffeda6"/>
      <path id="Path_8059" data-name="Path 8059" d="M325.921,407.474l-8.071-.8v.8l8.071,2.85Z" transform="translate(32.824 64.222)" fill="#c7b260"/>
      <rect id="Rectangle_903" data-name="Rectangle 903" width="116.569" height="116.569" transform="translate(320.124 341.482)" fill="url(#linear-gradient)"/>
      <path id="Path_8060" data-name="Path 8060" d="M403.23,346.156q4.741-3.584,9.525-7.14V315H296.2V431.569h4.911Q350.117,386.471,403.23,346.156Z" transform="translate(23.924 26.539)" fill="url(#linear-gradient-2)"/>
      <path id="Path_8061" data-name="Path 8061" d="M333.212,317.82H299.05V426.331H407.632V317.82Zm-32.553,1.665h30.959v8.368H300.659Zm0,76.325h23.988v8.579H300.659Zm105.294,18.781H326.3V395.753h79.655ZM391.038,416.2v8.579H379.015v-8.636ZM300.659,406h23.988v8.593H300.659Zm0,10.2h76.748v8.579H300.659Zm105.294,8.579H392.646v-8.636h13.306ZM300.659,394.2V329.363h32.553v-9.878h72.741v74.787Z" transform="translate(25.096 27.698)" fill="#7f8c8d"/>
      <path id="Path_8062" data-name="Path 8062" d="M351.575,387.426h-9.2l-2.046-7.817a25.186,25.186,0,0,1-6.11-2.54l-6.985,4.092-6.505-6.505,4.078-6.985a25.726,25.726,0,0,1-2.526-6.11l-7.832-2.046V350.3l7.831-2.046a25.962,25.962,0,0,1,2.526-6.11l-4.078-6.971,6.505-6.519,6.985,4.092a24.611,24.611,0,0,1,6.11-2.526l2.046-7.831h9.2l2.046,7.831a24.611,24.611,0,0,1,6.11,2.526l6.985-4.092,6.505,6.519-4.078,6.971a25.964,25.964,0,0,1,2.526,6.11L379.5,350.3v9.214l-7.831,2.046a25.723,25.723,0,0,1-2.526,6.11l4.078,6.985-6.505,6.449-6.985-4.092a25.187,25.187,0,0,1-6.11,2.54Zm-7.958-1.609h6.717l1.975-7.535.466-.113a24.186,24.186,0,0,0,6.547-2.723l.409-.24,6.731,3.937,4.755-4.755-3.951-6.731.254-.409a23.779,23.779,0,0,0,2.709-6.547l.113-.452,7.549-1.975v-6.731l-7.549-1.975-.113-.452a23.779,23.779,0,0,0-2.709-6.547l-.254-.409,3.951-6.731-4.755-4.755-6.731,3.937-.409-.24a23.707,23.707,0,0,0-6.547-2.709l-.466-.113L350.334,324h-6.717l-1.975,7.549-.466.113a23.707,23.707,0,0,0-6.547,2.709l-.409.24-6.731-3.937-4.755,4.755,3.951,6.731-.254.409a23.776,23.776,0,0,0-2.709,6.547l-.113.452-7.549,1.975v6.731l7.549,1.975.113.452a23.776,23.776,0,0,0,2.709,6.547l.254.409-3.951,6.731,4.755,4.755,6.731-3.937.409.24a24.186,24.186,0,0,0,6.547,2.723l.466.113Z" transform="translate(31.426 29.577)" fill="#7f8c8d"/>
      <path id="Path_8063" data-name="Path 8063" d="M343.317,371.223a19.967,19.967,0,1,1,19.967-19.967A19.967,19.967,0,0,1,343.317,371.223Zm0-38.339a18.344,18.344,0,1,0,18.344,18.344,18.344,18.344,0,0,0-18.344-18.344Z" transform="translate(35.085 33.235)" fill="#7f8c8d"/>
      <path id="Path_8064" data-name="Path 8064" d="M340.879,360.408a11.6,11.6,0,1,1,11.6-11.585,11.6,11.6,0,0,1-11.6,11.585Zm0-21.575a9.99,9.99,0,1,0,9.99,9.99A9.99,9.99,0,0,0,340.879,338.833Z" transform="translate(37.523 35.669)" fill="#7f8c8d"/>
      <rect id="Rectangle_904" data-name="Rectangle 904" width="4.826" height="0.804" transform="translate(335.999 384.083)" fill="#7f8c8d"/>
      <rect id="Rectangle_905" data-name="Rectangle 905" width="1.538" height="0.804" transform="translate(342.363 384.083)" fill="#7f8c8d"/>
      <path id="Path_8065" data-name="Path 8065" d="M382.079,345.954h-1.538v-.8h1.538Zm-3.076,0h-9.271v-.8H379Zm-10.809,0h-1.552v-.8h1.552Zm-3.09,0h-9.271v-.8H365.1Zm-10.809,0h-1.552v-.8h1.552Zm-3.09,0h-9.271v-.8H351.2Zm-10.809,0h-1.538v-.8H340.4Zm-3.09,0h-9.257v-.8h9.257Zm-10.809,0h-1.538v-.8H326.5Zm-3.09,0H314.15v-.8h9.257Z" transform="translate(31.303 38.933)" fill="#7f8c8d"/>
      <rect id="Rectangle_906" data-name="Rectangle 906" width="4.826" height="0.804" transform="translate(414.934 384.083)" fill="#7f8c8d"/>
      <rect id="Rectangle_907" data-name="Rectangle 907" width="0.804" height="4.826" transform="translate(377.47 349.652)" fill="#7f8c8d"/>
      <rect id="Rectangle_908" data-name="Rectangle 908" width="0.804" height="1.552" transform="translate(377.47 356.03)" fill="#7f8c8d"/>
      <path id="Path_8066" data-name="Path 8066" d="M337.644,381.688h-.8v-1.552h.8Zm0-3.1h-.8v-9.3h.8Zm0-10.837h-.8v-1.552h.8Zm0-3.1h-.8v-9.3h.8Zm0-10.837h-.8V352.21h.8Zm0-3.1h-.8v-9.3h.8Zm0-10.837h-.8v-1.552h.8Zm0-3.1h-.8v-9.3h.8Z" transform="translate(40.63 31.661)" fill="#7f8c8d"/>
      <rect id="Rectangle_909" data-name="Rectangle 909" width="0.804" height="4.826" transform="translate(377.47 414.886)" fill="#7f8c8d"/>
      <path id="Path_8067" data-name="Path 8067" d="M364.146,332.908,358.6,324.54l1.341-.889,3.866,5.842,3.824-9.313h12.022v1.609H368.7Z" transform="translate(49.575 28.668)" fill="#7f8c8d"/>
      <rect id="Rectangle_910" data-name="Rectangle 910" width="10.992" height="5.207" transform="translate(429.144 441.598)" fill="#34495e"/>
      <rect id="Rectangle_911" data-name="Rectangle 911" width="10.992" height="5.207" transform="translate(429.144 388.33)" fill="#34495e"/>
      <rect id="Rectangle_912" data-name="Rectangle 912" width="3.358" height="5.207" transform="translate(436.778 388.33)" fill="#2c3e50"/>
      <rect id="Rectangle_913" data-name="Rectangle 913" width="3.358" height="5.207" transform="translate(430.724 388.33)" fill="#496785"/>
      <rect id="Rectangle_914" data-name="Rectangle 914" width="3.358" height="5.207" transform="translate(436.778 441.598)" fill="#2c3e50"/>
      <rect id="Rectangle_915" data-name="Rectangle 915" width="3.358" height="5.207" transform="translate(430.724 441.598)" fill="#496785"/>
      <path id="Path_8068" data-name="Path 8068" d="M376.058,346.47h4.586a1,1,0,0,1,1,1v1.411H375v-1.411a1,1,0,0,1,1.058-1Z" transform="translate(56.317 39.475)" fill="#f1c40f"/>
      <path id="Path_8069" data-name="Path 8069" d="M380.6,346.47a.875.875,0,0,1-.734,1.3h-3.937a.8.8,0,0,1-.8-.564.92.92,0,0,0,0,.268v1.411h6.533v-1.411a1,1,0,0,0-1.058-1Z" transform="translate(56.363 39.475)" fill="#f39c12"/>
      <rect id="Rectangle_916" data-name="Rectangle 916" width="9.567" height="1.115" transform="translate(429.863 446.805)" fill="#2d3f52"/>
      <path id="Path_8070" data-name="Path 8070" d="M375.85,390.39v5.56a2.131,2.131,0,0,0,4.233,0v-5.56Z" transform="translate(56.666 57.529)" fill="#95a5a6"/>
      <path id="Path_8071" data-name="Path 8071" d="M375.85,390.39v1.736a1.411,1.411,0,0,1,2.582.508v3.8a1.312,1.312,0,0,1-1.679,1.256,2.145,2.145,0,0,0,1.228.381,2.117,2.117,0,0,0,2.117-2.117v-5.56Z" transform="translate(56.666 57.529)" fill="#7f8c8d"/>
      <path id="Path_8072" data-name="Path 8072" d="M410.367,376.229a25.569,25.569,0,1,1-25.554-25.569,25.569,25.569,0,0,1,25.554,25.569Z" transform="translate(49.834 41.198)" fill="#2980b9"/>
      <path id="Path_8073" data-name="Path 8073" d="M404.245,374.856a20.813,20.813,0,1,1-6.081-14.745A20.827,20.827,0,0,1,404.245,374.856Z" transform="translate(51.215 42.571)" fill="#e8ddad"/>
      <path id="Path_8074" data-name="Path 8074" d="M389.208,362.954c-.522-.593-7.239,4.487-10.3,6.9h-.3a2.6,2.6,0,1,0,2.582,2.582h0C383.944,369.628,389.744,363.547,389.208,362.954Z" transform="translate(56.728 46.232)" fill="#cfc59a"/>
      <path id="Path_8075" data-name="Path 8075" d="M388.474,362.094c.663.748-8.622,10.1-9.355,10.766a1.809,1.809,0,1,1-2.413-2.7C377.453,369.5,387.811,361.346,388.474,362.094Z" transform="translate(56.77 45.878)" fill="#2c3e50"/>
      <path id="Path_8076" data-name="Path 8076" d="M380.7,369.536a2.582,2.582,0,1,1-.751-1.835A2.6,2.6,0,0,1,380.7,369.536Z" transform="translate(56.526 47.89)" fill="#34495e"/>
      <circle id="Ellipse_463" data-name="Ellipse 463" cx="1.312" cy="1.312" r="1.312" transform="translate(433.335 416.114)" fill="#f1c40f"/>
      <path id="Path_8077" data-name="Path 8077" d="M366.466,379.56a20.8,20.8,0,0,1,34.8-15.395,20.8,20.8,0,1,0-31.82,26.077A20.7,20.7,0,0,1,366.466,379.56Z" transform="translate(51.22 42.579)" fill="#cfc59a"/>
      <path id="Path_8078" data-name="Path 8078" d="M381.912,393.741l-1.143-.1.48-3.993a8.755,8.755,0,0,0,.875.085Zm3.358-.1-.466-3.993a3.274,3.274,0,0,0,.889-.127l.691,3.951Zm-7.789-.677-1.072-.353,1.411-3.768a8.2,8.2,0,0,0,.832.268Zm12.178-.367-1.411-3.768.833-.325,1.594,3.669a10.936,10.936,0,0,1-1.016.423Zm-16.312-1.411c-.325-.183-.649-.381-.96-.593l2.187-3.358.762.48Zm20.319-.607-2.215-3.344.734-.522,2.4,3.217a5.458,5.458,0,0,1-.917.649Zm-23.988-2.074c-.282-.268-.536-.522-.8-.8l2.921-2.752a6.726,6.726,0,0,0,.635.635Zm27.361-.818-2.907-2.822c.2-.212.4-.423.593-.663l3.076,2.582a4.861,4.861,0,0,1-.705.9Zm-30.253-2.625c-.212-.31-.409-.621-.593-.945l3.457-2.018c.155.254.31.508.48.762Zm32.948-.988-3.471-2,.423-.79,3.584,1.806a5.78,5.78,0,0,1-.48.988Zm-34.98-3.02c-.127-.353-.24-.706-.353-1.072l3.838-1.157c.085.3.183.579.282.847Zm36.758-1.1-3.838-1.157c.085-.282.155-.564.226-.861l3.909.917a6.589,6.589,0,0,1-.24,1.1Zm-37.8-3.274c0-.367-.071-.748-.1-1.115l4.007-.24a3.785,3.785,0,0,0,.07.889Zm38.579-1.157-4.007-.24V374.4h4.007v.155a2.594,2.594,0,0,1,.056.974Zm-34.6-2.822-3.993-.452a5.917,5.917,0,0,1,.169-1.115l3.951.677q-.028.4-.07.833Zm30.38-.988a3.869,3.869,0,0,0-.183-.875l3.895-.931c.1.367.169.734.24,1.1Zm-29.633-2.483-3.768-1.411c.127-.367.268-.706.409-1.058l3.7,1.58a8.6,8.6,0,0,0-.226.833Zm28.546-.917c-.127-.268-.254-.55-.381-.8l3.57-1.82c.169.325.325.663.48,1.016Zm-26.951-2.272-3.344-2.2c.2-.31.409-.621.635-.917l3.231,2.371Zm25.159-.8c-.183-.24-.367-.48-.564-.706l3.062-2.582c.24.282.48.579.706.875ZM372.33,363.3l-2.822-2.907c.268-.268.55-.508.832-.762l2.582,3.076q-.251.258-.48.536Zm20.39-.663-.691-.55,2.371-3.217c.31.226.607.452.889.691Zm-17.54-1.482-2.032-3.457.988-.536,1.82,3.57Zm14.562-.466-.818-.381,1.58-3.683c.353.155.691.31,1.016.48Zm-11.289-.945L377.3,355.91c.353-.113.72-.212,1.087-.3l.931,3.895Zm7.944-.268-.875-.169.677-3.951a5.212,5.212,0,0,1,1.115.226Zm-4.431-.367-.254-3.993h1.129v4.007Z" transform="translate(51.635 43.031)" fill="#34495e"/>
      <path id="Path_8079" data-name="Path 8079" d="M369.894,396.974A50.672,50.672,0,0,1,381.07,379.35,49.81,49.81,0,0,1,408.12,365.8,25.555,25.555,0,1,0,369.894,397Z" transform="translate(49.838 41.209)" fill="#fff" opacity="0.3"/>
      <path id="Path_8080" data-name="Path 8080" d="M377.843,394.807a.847.847,0,1,1-.847-.847A.847.847,0,0,1,377.843,394.807Z" transform="translate(56.789 58.997)" fill="#f0f4f5"/>
      <path id="Path_8081" data-name="Path 8081" d="M312.317,327.632c0,.55-1.566,1-3.514,1s-3.514-.452-3.514-1,1.566-1,3.514-1S312.317,327.152,312.317,327.632Z" transform="translate(27.661 31.32)" fill="#f1c40f"/>
      <rect id="Rectangle_917" data-name="Rectangle 917" width="7.041" height="15.832" transform="translate(332.951 358.951)" fill="#f39c12"/>
      <rect id="Rectangle_918" data-name="Rectangle 918" width="1.51" height="15.832" transform="translate(338.468 358.951)" fill="#e67e22"/>
      <rect id="Rectangle_919" data-name="Rectangle 919" width="1.524" height="15.832" transform="translate(334.362 358.951)" fill="#ffda45"/>
      <path id="Path_8082" data-name="Path 8082" d="M310.469,343.075h-3.33l-1.848-4.515h7.027Z" transform="translate(27.661 36.224)" fill="#e67e22"/>
      <rect id="Rectangle_920" data-name="Rectangle 920" width="2.088" height="19.868" transform="translate(335.42 379.299)" fill="#34495e"/>
      <rect id="Rectangle_921" data-name="Rectangle 921" width="0.917" height="19.868" transform="translate(336.592 379.299)" fill="#2c3e50"/>
      <path id="Path_8083" data-name="Path 8083" d="M310.657,343.819a8.72,8.72,0,1,1-6.175,2.549A8.735,8.735,0,0,1,310.657,343.819Zm0-1.2a9.878,9.878,0,1,0,9.878,9.878,9.878,9.878,0,0,0-9.878-9.878Z" transform="translate(25.807 37.893)" fill="#34495e"/>
      <path id="Path_8084" data-name="Path 8084" d="M304.537,358.717a8.706,8.706,0,1,1,12.615-11.966l.9-.8A9.9,9.9,0,1,0,303.7,359.592C303.972,359.3,304.254,359,304.537,358.717Z" transform="translate(25.889 37.995)" fill="#45617d"/>
      <path id="Path_8085" data-name="Path 8085" d="M310.914,357.4a2.427,2.427,0,1,1-2.427-2.427,2.427,2.427,0,0,1,2.427,2.427Z" transform="translate(27.978 42.969)" fill="#ecf0f1"/>
      <rect id="Rectangle_922" data-name="Rectangle 922" width="43.532" height="2.102" transform="translate(314.72 419.331)" fill="#34495e"/>
      <rect id="Rectangle_923" data-name="Rectangle 923" width="43.532" height="0.931" transform="translate(314.72 420.502)" fill="#2c3e50"/>
      <path id="Path_8086" data-name="Path 8086" d="M309.625,357.88l-1.115.522,4.9,10.47.945-.437,13.617,29.124-.945.452,5.941,12.7,1.115-.522,2.032-5.644-20.856-44.632Z" transform="translate(28.985 44.166)" fill="#34495e"/>
      <path id="Path_8087" data-name="Path 8087" d="M313.652,363.905c4.854,7.733,8.466,16.693,12.432,24.919,3.147,6.463,7.338,12.968,8.466,20.136.55-1.5.96-2.653,1.595-4.4l-20.856-44.632-5.644-2.046-1.115.522.593,1.284A11.288,11.288,0,0,1,313.652,363.905Z" transform="translate(28.993 44.165)" fill="#45617d"/>
      <path id="Path_8088" data-name="Path 8088" d="M325.84,395.472l3.514,7.521-2.4-8.043Z" transform="translate(36.109 59.404)" fill="#fff"/>
      <path id="Path_8089" data-name="Path 8089" d="M329.368,388.955a3.457,3.457,0,1,1-1.957-1.8,3.471,3.471,0,0,1,1.957,1.8Z" transform="translate(34.838 56.114)" fill="#f39c12"/>
      <path id="Path_8090" data-name="Path 8090" d="M323.681,392.787a9.948,9.948,0,0,1,5.729-3.7s0,0,0-.085a3.471,3.471,0,1,0-6.279,2.935A3.007,3.007,0,0,0,323.681,392.787Z" transform="translate(34.824 56.064)" fill="#f1c40f"/>
      <path id="Path_8091" data-name="Path 8091" d="M326.344,389.288a.945.945,0,1,1-1.256-.452.945.945,0,0,1,1.256.452Z" transform="translate(35.576 56.854)" fill="#7f8c8d"/>
      <path id="Path_8092" data-name="Path 8092" d="M318.124,370.737a1.051,1.051,0,1,1-1.4-.508A1.051,1.051,0,0,1,318.124,370.737Z" transform="translate(32.113 49.201)" fill="#7f8c8d"/>
      <path id="Path_8093" data-name="Path 8093" d="M295.873,393.213l11.585-24.778.945.438,4.882-10.47-1.115-.522-5.63,2.046L291.88,391.351Z" transform="translate(22.149 44.166)" fill="#34495e"/>
      <path id="Path_8094" data-name="Path 8094" d="M313.2,358.727l.141-.325-1.115-.522-5.644,2.046L291.91,391.351l2.639,1.228c.9-2.272,7.055-17.229,12.065-26.288C309.661,360.674,312.2,359.178,313.2,358.727Z" transform="translate(22.161 44.166)" fill="#45617d"/>
      <path id="Path_8095" data-name="Path 8095" d="M291.649,384.69l-4.149,8.861,2.046,5.63,1.115.522,5.926-12.714Z" transform="translate(20.348 55.186)" fill="#34495e"/>
      <path id="Path_8096" data-name="Path 8096" d="M292.439,388.895c.085-.212.169-.409.268-.621.353-.8.706-1.623,1.072-2.441v-.113l-2.215-1.03-4.064,8.9,1.792,4.911A55.1,55.1,0,0,1,292.439,388.895Z" transform="translate(20.348 55.186)" fill="#45617d"/>
      <path id="Path_8097" data-name="Path 8097" d="M290.764,395.482,287.25,403l2.4-8.043Z" transform="translate(20.245 59.408)" fill="#fff"/>
      <path id="Path_8098" data-name="Path 8098" d="M288.225,388.963a3.471,3.471,0,1,0,4.614-1.679A3.471,3.471,0,0,0,288.225,388.963Z" transform="translate(20.512 56.12)" fill="#f39c12"/>
      <path id="Path_8099" data-name="Path 8099" d="M289.642,391.729a11.571,11.571,0,0,1,4.826-2.822,3.457,3.457,0,1,0-5.715,3.768A9.55,9.55,0,0,1,289.642,391.729Z" transform="translate(20.506 56.106)" fill="#f1c40f"/>
      <path id="Path_8100" data-name="Path 8100" d="M289.786,389.3a.934.934,0,0,0,1.693.79.917.917,0,0,0-.452-1.242.931.931,0,0,0-1.242.452Z" transform="translate(21.251 56.858)" fill="#7f8c8d"/>
      <path id="Path_8101" data-name="Path 8101" d="M298.028,370.737a1.072,1.072,0,0,0,.508,1.411,1.058,1.058,0,1,0-.508-1.411Z" transform="translate(24.636 49.201)" fill="#7f8c8d"/>
      <rect id="Rectangle_924" data-name="Rectangle 924" width="2.921" height="4.826" transform="translate(314.676 435.833) rotate(25.03)" fill="#34495e"/>
      <rect id="Rectangle_925" data-name="Rectangle 925" width="0.776" height="4.826" transform="translate(315.052 436.022) rotate(25.07)" fill="#4a6785"/>
      <rect id="Rectangle_926" data-name="Rectangle 926" width="0.861" height="4.826" transform="translate(316.592 436.706) rotate(25.08)" fill="#2c3e50"/>
      <rect id="Rectangle_927" data-name="Rectangle 927" width="0.931" height="6.59" transform="translate(318.488 430.285) rotate(25.02)" fill="#484f4f"/>
      <rect id="Rectangle_928" data-name="Rectangle 928" width="1.298" height="6.886" transform="translate(315.017 428.54) rotate(25.02)" fill="#f39c12"/>
      <rect id="Rectangle_929" data-name="Rectangle 929" width="1.298" height="1.99" transform="translate(314.474 429.789) rotate(25.07)" fill="#f1c40f"/>
      <rect id="Rectangle_930" data-name="Rectangle 930" width="1.298" height="1.722" transform="translate(312.839 433.22) rotate(25.02)" fill="#e67e22"/>
      <rect id="Rectangle_931" data-name="Rectangle 931" width="0.734" height="1.905" transform="translate(315.132 431.377) rotate(25.04)" fill="#484f4f"/>
      <rect id="Rectangle_932" data-name="Rectangle 932" width="2.088" height="19.868" transform="translate(335.42 410.456)" fill="#f39c12"/>
      <rect id="Rectangle_933" data-name="Rectangle 933" width="2.088" height="4.417" transform="translate(335.42 414.322)" fill="#f1c40f"/>
      <rect id="Rectangle_934" data-name="Rectangle 934" width="2.088" height="6.378" transform="translate(335.42 423.945)" fill="#e67e22"/>
      <path id="Path_8102" data-name="Path 8102" d="M290.91,373.686l2.06-.663V370l-2.06-.663Z" transform="translate(21.75 48.876)" fill="#f39c12"/>
      <path id="Path_8103" data-name="Path 8103" d="M325.25,373.686l-2.06-.663V370l2.06-.663Z" transform="translate(35.019 48.876)" fill="#f39c12"/>
      <path id="Path_8104" data-name="Path 8104" d="M305.29,327.546a3.484,3.484,0,0,1,.861-.409,6.418,6.418,0,0,1,1.9-.3,6.35,6.35,0,0,1,1.9.3,3.78,3.78,0,0,1,.875.409,3.78,3.78,0,0,1-.875.409,6.349,6.349,0,0,1-1.9.3,6.422,6.422,0,0,1-1.9-.3A3.485,3.485,0,0,1,305.29,327.546Z" transform="translate(27.661 31.406)" fill="#ffda45"/>
      <path id="Path_8105" data-name="Path 8105" d="M306.29,338.56l1.355,4.515.169-4.515Z" transform="translate(28.072 36.224)" fill="#f39c12"/>
      <path id="Path_8106" data-name="Path 8106" d="M309.611,338.56l-1.411,4.515h1.072l1.848-4.515Z" transform="translate(28.857 36.224)" fill="#d35400"/>
      <path id="Path_8107" data-name="Path 8107" d="M308.914,356.842a1,1,0,1,1-1-1A1,1,0,0,1,308.914,356.842Z" transform="translate(28.327 43.327)" fill="#fff"/>
      <path id="Path_8108" data-name="Path 8108" d="M290.91,369.83l2.06.423v.818l-2.06.24Z" transform="translate(21.75 49.078)" fill="#f1c40f"/>
      <path id="Path_8109" data-name="Path 8109" d="M290.91,371.587l2.06-.437v1.129l-2.06.663Z" transform="translate(21.75 49.62)" fill="#e67e22"/>
      <path id="Path_8110" data-name="Path 8110" d="M325.25,369.83l-2.06.423v.818l2.06.24Z" transform="translate(35.019 49.078)" fill="#f1c40f"/>
      <path id="Path_8111" data-name="Path 8111" d="M325.25,371.587l-2.06-.437v1.129l2.06.663Z" transform="translate(35.019 49.62)" fill="#e67e22"/>
      <path id="Path_8112" data-name="Path 8112" d="M299.247,370.9a.423.423,0,0,1-.437.409.409.409,0,1,1,0-.818.423.423,0,0,1,.437.409Z" transform="translate(24.829 49.349)" fill="#ecf0f1"/>
      <ellipse id="Ellipse_464" data-name="Ellipse 464" cx="0.437" cy="0.409" rx="0.437" ry="0.409" transform="translate(348.854 419.839)" fill="#ecf0f1"/>
      <path id="Path_8113" data-name="Path 8113" d="M290.838,389.425a.409.409,0,1,1-.409-.4.4.4,0,0,1,.409.4Z" transform="translate(21.384 56.97)" fill="#ecf0f1"/>
      <path id="Path_8114" data-name="Path 8114" d="M325.514,389.407a.409.409,0,1,1-.4-.333.409.409,0,0,1,.4.333Z" transform="translate(35.644 56.988)" fill="#ecf0f1"/>
      <path id="Path_8115" data-name="Path 8115" d="M340.434,401.018h-3.1v7.831h43.278v-7.831h-3.1a18.527,18.527,0,0,0-37.041,0Zm18.513,1.044a1.044,1.044,0,1,1,1.044-1.044A1.044,1.044,0,0,1,358.948,402.063Zm11.19-1.044h-9.1a2.088,2.088,0,1,0-4.163,0h-9.1a11.19,11.19,0,0,1,22.366,0Z" transform="translate(40.832 54.492)" fill="#2980b9"/>
      <path id="Path_8116" data-name="Path 8116" d="M379.061,407.612H338.14v-5.461h3.1v-1.185a17.342,17.342,0,1,1,34.67,0v1.185h3.1Zm-8.085-5.461v-1.185a12.361,12.361,0,1,0-24.708,0v1.185h10.47a2.244,2.244,0,0,0,3.768,0Z" transform="translate(41.165 54.545)" fill="#3498db"/>
      <path id="Path_8117" data-name="Path 8117" d="M375.84,399.671l-2.935.212v-.536l2.935-.31A2.389,2.389,0,0,0,375.84,399.671Zm-.522-3.161-2.822.734-.141-.522,2.822-.833Zm-1.072-3.02-2.681,1.228c0-.155-.141-.325-.226-.48l2.568-1.369A4.614,4.614,0,0,1,374.245,393.49Zm-1.594-2.822-2.413,1.693a5.005,5.005,0,0,0-.325-.437l2.356-1.778Zm-2.06-2.455-2.074,2.088-.4-.367,2-2.159Zm-2.455-2.046-1.693,2.427a2.977,2.977,0,0,0-.437-.3l1.58-2.483Zm-2.822-1.58-1.228,2.681-.494-.212,1.129-2.723Zm-3.034-1.058-.706,2.822-.536-.127.621-2.822Zm-3.161-.508-.212,2.935h-.522l.085-2.935Zm-2.893,2.991-.522.07-.423-2.921.635-.085Zm-2.611.522a1.42,1.42,0,0,0-.522.169l-.931-2.822.607-.183Zm-2.5.988-.466.24-1.411-2.582.564-.3Zm-2.272,1.411-.423.325-1.849-2.286c.155-.141.325-.268.494-.4Zm-1.99,1.792-.367.4-2.215-1.877c.141-.169.282-.325.437-.48Zm-1.651,2.117c-.1.155-.2.3-.282.452l-2.54-1.5.339-.55Zm-1.242,2.371c-.071.169-.141.339-.2.508l-2.822-1.03c.085-.2.155-.409.24-.607Zm-.8,2.568a3.751,3.751,0,0,1-.1.522l-2.907-.522.127-.635Zm-.325,2.653v.536H339.9v-.635Z" transform="translate(41.888 54.5)" fill="#2c3e50"/>
      <path id="Path_8118" data-name="Path 8118" d="M377.429,398.74v2.949h-.593V398.74Zm-2.949,0v2.949H373.9V398.74Zm-2.935,0v2.949h-.593V398.74Zm-2.949,0v2.949H368V398.74Zm-2.949,0v2.949h-.593V398.74Zm-2.949,0v2.949h-.579V398.74Zm-2.949,0v2.949h-.579V398.74Zm-2.935,0v2.949h-.593V398.74Zm-2.949,0v2.949H353.3V398.74Zm-2.949,0v2.949h-.593V398.74Zm-2.949,0v2.949h-.593V398.74Zm-2.949,0v2.949h-.579V398.74Zm-2.935,0v2.949h-.593V398.74Zm-2.949,0v2.949h-.593V398.74Z" transform="translate(41.329 60.962)" fill="#2c3e50"/>
      <path id="Path_8119" data-name="Path 8119" d="M361.142,400.658v-.071h-.071a.4.4,0,0,0,0-.127l-1.185-1.75a2.06,2.06,0,0,0-2.963,1.877h-9.1a11.175,11.175,0,0,1,6.66-10.216c-1.072-1.736-2.131-3.471-3.147-5.235l-.649-1.087a18.5,18.5,0,0,0-10.2,16.538h-3.1v7.831h29.364C364.783,405.865,362.949,403.269,361.142,400.658Zm-3.245-.071a1.044,1.044,0,1,1,1.03,1.044A1.044,1.044,0,0,1,357.9,400.588Z" transform="translate(40.852 54.923)" fill="#fcffa3" opacity="0.2"/>
    </g>
  </g>
</svg>
