<svg xmlns="http://www.w3.org/2000/svg" width="1389.444" height="829.539" viewBox="0 0 1389.444 829.539">
  <g id="problem_solvin" data-name="problem solvin" transform="translate(-101.133 -137.52)">
    <g id="object" transform="translate(101.133 137.52)">
      <path id="Path_8451" data-name="Path 8451" d="M847.65,740.682q77.179.257,154.343-.361c110.215-1.015,220.445-3.836,330.483-10.3,47.647-2.8,217.085-.3,136.857-100.762-27.112-33.917-84.969-47.221-122.96-47.84-41.643-.7-82.089,3.029-123.8,5.212-38.748,2.029-77.392,4.91-116.2,4.821-79.272-.213-158.56,0-237.679,6.365-74.348,5.969-148.874,3.925-223.37,3.925-76.407,0-152.3-.727-228.161-12.927-33.051-5.32-66.677-7.181-99.926-10.888-29.745-3.336-58.327,0-87.894,3.153a183.366,183.366,0,0,0-72.21,23.262c-17.882,10.289-49.78,42.217-55.268,66.677-15.382,68.795,216.7,67.132,252.413,66.969C518.716,737.272,683.186,740.133,847.65,740.682Z" transform="translate(-101.133 88.781)" fill="#f1f2f2"/>
      <path id="Path_8452" data-name="Path 8452" d="M217.678,273.789a45.463,45.463,0,0,0-6.167-21.109,55.962,55.962,0,0,1,4.949,19.7A33.194,33.194,0,0,1,204.7,300.262l-.139.1q.935,2.383,1.9,4.791l9.349-.381c1.331.287,3.321.713,5.805,1.287a36.658,36.658,0,0,1-4.048-6.637C212.57,288.909,217.994,284.276,217.678,273.789Z" transform="translate(-47.801 -78.164)" fill="none"/>
      <path id="Path_8453" data-name="Path 8453" d="M170.377,272.49a13.761,13.761,0,0,0,.713,6.711,6.806,6.806,0,0,0,1.8,2.866,34.16,34.16,0,0,0,3.593,1.955c4.682,3.138,2.9,9.9,3.623,14.516a25.1,25.1,0,0,0,.94,3.821l4.152-5.806,17.763-.728v-.139A44.464,44.464,0,0,1,170.377,272.49Z" transform="translate(-65.498 -67.957)" fill="none"/>
      <path id="Path_8454" data-name="Path 8454" d="M342.317,252.954l7.667-6.484,9.928,3.167,5.711,8.3-2.608,7.078-8.062,4.682,3.029.817-.559,2.5-12.665,5.771c-3.029-3.168-13.319-5.608-14.957-7.305l8.473-7.29Z" transform="translate(16.741 -81.367)" fill="#b97262"/>
      <path id="Path_8463" data-name="Path 8463" d="M740.694,317.308l-15.1,7.563-10.774-1.227-.074-3.682,6.335-2.514-20.475-4.454-1.881-9.9,24.533-5.82,22.232,6.469Z" transform="translate(206.891 -55.2)" fill="#eac5b0"/>
      <path id="Path_8471" data-name="Path 8471" d="M887.055,280.286a109.813,109.813,0,0,1-2.331,11.091s-39.594,114.036-43.3,123.143a16.892,16.892,0,0,0-1.258,6.434l9.092,26.726,17.926-22.306,24.474-127.78,5.939-5.108,2.094-12.957Z" transform="translate(279.793 -64.295)" fill="#fff"/>
      <path id="Path_8472" data-name="Path 8472" d="M848.746,682.75V594.114a11.636,11.636,0,0,1-.495-1.2V477.079H731.013a18.456,18.456,0,0,1-8.107-26.612c15.927-25.533,19.564-57.115-9.958-74.482a51.577,51.577,0,0,0-70.072,19.381c-10.888,20.079-1.98,37.763,8.275,55.724a18.456,18.456,0,0,1-8.489,26H526.9V591.718a18.441,18.441,0,0,0,27.626,11.136c25.533-15.912,57.13-19.535,74.482,9.988,14.076,23.945,3.667,56.253-20.762,69.512-20.094,10.888-36.2,2.123-54.373-7.746-12-6.518-24.321-1.514-26.959,11.2V798.4h81.242v.257h174.62v-.272h65.528V683.9A5.534,5.534,0,0,1,848.746,682.75Z" transform="translate(118.33 -17.999)" fill="#f9d750"/>
      <path id="Path_8473" data-name="Path 8473" d="M738.489,575.908c-17.367-29.522-48.948-25.885-74.482-9.943A18.441,18.441,0,0,1,635.8,550.28V443.461H521.815a18.441,18.441,0,0,0-9.621,26.5c10.26,17.956,19.2,35.635,8.3,55.724A51.577,51.577,0,0,1,450.441,545.1c-29.537-17.353-25.914-48.934-10-74.482a18.441,18.441,0,0,0-9.518-27.127H316.657v-.881h-1.514v-1.94h-.495V761.936H635.915V653.71a18.441,18.441,0,0,1,27.582-16c17.971,10.245,35.635,19.184,55.739,8.275A51.65,51.65,0,0,0,738.489,575.908Z" transform="translate(8.924 18.722)" fill="#5ba1f4"/>
      <path id="Path_8474" data-name="Path 8474" d="M885.837,540.361,989.277,243.1l-1.515-.495L685.768,137.52,649.791,241.113a18.441,18.441,0,0,1-31.824,5.5c-18.881-23.43-47.512-37.248-73.635-15.08a51.542,51.542,0,0,0-4.712,72.541c15.342,16.912,35.021,14.274,55.343,10.5a18.441,18.441,0,0,1,20.787,24.251L580.185,441.059l106.35,37.006a18.456,18.456,0,0,0,19.426-21.777c-3.791-20.336-6.434-39.975,10.473-55.357a51.581,51.581,0,0,1,72.541,4.682c22.188,26.1,8.379,54.739-15.031,73.635a18.441,18.441,0,0,0,1.514,29.745L839.606,531.3l42.628,14.848,1.515.495,2.153-6.211Z" transform="translate(118.324 -137.52)" fill="#ee7635"/>
      <path id="Path_8475" data-name="Path 8475" d="M634.531,407.527c-4.138-12.333-16.971-15.793-28.112-7.879-16.827,11.972-31.824,22.623-53.041,14.214-25.84-10.245-40.054-41.054-28.958-66.513,13.64-31.4,45.464-31.6,72.754-18.852a18.441,18.441,0,0,0,26.082-14.383l-8.151-67.36L609.7,201.944l-.2-1.514L573.2,204.825,304.246,237.208h0l-13.729,1.653.183,1.515,5,41.386,8.7,72.056c-.089.426-.228.832-.346,1.242l10.606,88c.213.346.426.7.624,1.074l13.729,113.655,1.514-.2.139.881,41.371-5,72.066-8.721a18.456,18.456,0,0,1,12.715,25.761c-12.729,27.276-12.546,59.1,18.852,72.754A51.6,51.6,0,0,0,542.9,615.58c8.414-21.217-2.593-37.733-14.927-54.328a18.441,18.441,0,0,1,6.434-27.444l113.655-13.744-5.652-46.706h0Z" transform="translate(-3.515 -105.097)" fill="#3f8e68"/>
      <path id="Path_8479" data-name="Path 8479" d="M779.859,350.846l-18.852.347L749.49,334.973l29.26-16.258,8.151,10Z" transform="translate(233.057 -44.11)" fill="#eac5b0"/>
    </g>
  </g>
</svg>
