<svg xmlns="http://www.w3.org/2000/svg" width="280.733" height="167.605" viewBox="0 0 280.733 167.605">
  <g id="problem_solvin" data-name="problem solvin" transform="translate(-101.138 -137.52)">
    <g id="object" transform="translate(101.138 137.52)">
      <path id="Path_8451" data-name="Path 8451" d="M251.967,609.7q15.594.052,31.185-.073c22.269-.205,44.541-.775,66.774-2.082,9.627-.566,43.862-.061,27.652-20.359-5.478-6.853-17.168-9.541-24.844-9.666-8.414-.141-16.586.612-25.013,1.053-7.829.41-15.637.992-23.479.974-16.017-.043-32.037,0-48.023,1.286-15.022,1.206-30.08.793-45.132.793-15.438,0-30.772-.147-46.1-2.612-6.678-1.075-13.472-1.451-20.19-2.2-6.01-.674-11.785,0-17.759.637a37.05,37.05,0,0,0-14.59,4.7c-3.613,2.079-10.058,8.53-11.167,13.472-3.108,13.9,43.785,13.564,51,13.531C185.506,609.011,218.737,609.589,251.967,609.7Z" transform="translate(-101.138 -442.107)" fill="#f1f2f2"/>
      <path id="Path_8452" data-name="Path 8452" d="M207.212,256.945a9.186,9.186,0,0,0-1.246-4.265,11.307,11.307,0,0,1,1,3.98,6.707,6.707,0,0,1-2.376,5.634l-.028.021c.126.321.254.643.383.968l1.889-.077c.269.058.671.144,1.173.26a7.406,7.406,0,0,1-.818-1.341C206.18,260,207.276,259.064,207.212,256.945Z" transform="translate(-172.893 -217.419)" fill="none"/>
      <path id="Path_8453" data-name="Path 8453" d="M170.266,272.49a2.78,2.78,0,0,0,.144,1.356,1.375,1.375,0,0,0,.364.579,6.908,6.908,0,0,0,.726.395c.946.634.585,2,.732,2.933a5.072,5.072,0,0,0,.19.772l.839-1.173,3.589-.147v-.028A8.984,8.984,0,0,1,170.266,272.49Z" transform="translate(-149.08 -231.164)" fill="none"/>
      <path id="Path_8454" data-name="Path 8454" d="M332.329,247.78l1.549-1.31,2.006.64,1.154,1.678-.527,1.43-1.629.946.612.165-.113.505L332.822,253c-.612-.64-2.691-1.133-3.022-1.476l1.712-1.473Z" transform="translate(-259.786 -213.111)" fill="#b97262"/>
      <path id="Path_8463" data-name="Path 8463" d="M707.208,301.322l-3.05,1.528-2.177-.248-.015-.744,1.28-.508-4.137-.9-.38-2,4.957-1.176,4.492,1.307Z" transform="translate(-515.753 -248.363)" fill="#eac5b0"/>
      <path id="Path_8471" data-name="Path 8471" d="M849.643,279.682a22.2,22.2,0,0,1-.471,2.241s-8,23.041-8.748,24.881a3.415,3.415,0,0,0-.254,1.3l1.837,5.4,3.622-4.507,4.945-25.818,1.2-1.032.423-2.618Z" transform="translate(-613.886 -236.041)" fill="#fff"/>
      <path id="Path_8472" data-name="Path 8472" d="M591.929,432.676V414.767a2.368,2.368,0,0,1-.1-.242V391.12H568.141a3.729,3.729,0,0,1-1.638-5.377c3.218-5.159,3.953-11.54-2.012-15.049a10.421,10.421,0,0,0-14.158,3.916c-2.2,4.057-.4,7.63,1.672,11.259a3.729,3.729,0,0,1-1.715,5.254H526.9v23.16a3.726,3.726,0,0,0,5.582,2.25c5.159-3.215,11.543-3.947,15.049,2.018,2.844,4.838.741,11.366-4.195,14.045-4.06,2.2-7.315.429-10.986-1.565-2.425-1.317-4.914-.306-5.447,2.263v22.75h16.415v.052H578.6v-.055h13.24V432.908A1.12,1.12,0,0,1,591.929,432.676Z" transform="translate(-396.536 -298.363)" fill="#f9d750"/>
      <path id="Path_8473" data-name="Path 8473" d="M400.285,467.994c-3.509-5.965-9.89-5.23-15.049-2.009a3.726,3.726,0,0,1-5.7-3.169V441.233H356.506a3.726,3.726,0,0,0-1.944,5.355c2.073,3.628,3.879,7.2,1.678,11.259a10.421,10.421,0,0,1-14.155,3.922c-5.968-3.506-5.236-9.887-2.021-15.049a3.726,3.726,0,0,0-1.923-5.481H315.054v-.178h-.306v-.392h-.1v64.912h64.912V483.714a3.726,3.726,0,0,1,5.573-3.233c3.631,2.07,7.2,3.876,11.262,1.672A10.436,10.436,0,0,0,400.285,467.994Z" transform="translate(-249.275 -347.849)" fill="#5ba1f4"/>
      <path id="Path_8474" data-name="Path 8474" d="M599.424,218.914l20.9-60.062-.306-.1L559,137.52l-7.269,20.931a3.726,3.726,0,0,1-6.43,1.111c-3.815-4.734-9.6-7.526-14.878-3.047a10.414,10.414,0,0,0-.952,14.657c3.1,3.417,7.076,2.884,11.182,2.122a3.726,3.726,0,0,1,4.2,4.9l-7.186,20.656,21.488,7.477a3.729,3.729,0,0,0,3.925-4.4c-.766-4.109-1.3-8.077,2.116-11.185a10.422,10.422,0,0,1,14.657.946c4.483,5.273,1.693,11.06-3.037,14.878a3.726,3.726,0,0,0,.306,6.01l12.961,4.507,8.613,3,.306.1.435-1.255Z" transform="translate(-396.538 -137.52)" fill="#ee7635"/>
      <path id="Path_8475" data-name="Path 8475" d="M360.025,242.274c-.836-2.492-3.429-3.191-5.68-1.592-3.4,2.419-6.43,4.571-10.717,2.872-5.221-2.07-8.093-8.295-5.851-13.439,2.756-6.344,9.186-6.384,14.7-3.809a3.726,3.726,0,0,0,5.27-2.906L356.1,209.79l-1.093-9.054-.04-.306-7.333.888-54.343,6.543h0l-2.774.334.037.306,1.01,8.362,1.758,14.559c-.018.086-.046.168-.07.251l2.143,17.78c.043.07.086.141.126.217l2.774,22.964.306-.04.028.178,8.359-1.01L321.549,270a3.729,3.729,0,0,1,2.569,5.205c-2.572,5.511-2.535,11.941,3.809,14.7a10.425,10.425,0,0,0,13.583-5.594c1.7-4.287-.524-7.624-3.016-10.977a3.726,3.726,0,0,1,1.3-5.545l22.964-2.777-1.142-9.437h0Z" transform="translate(-232.533 -181.168)" fill="#3f8e68"/>
      <path id="Path_8479" data-name="Path 8479" d="M755.626,325.207l-3.809.07L749.49,322l5.912-3.285,1.647,2.021Z" transform="translate(-550.971 -263.231)" fill="#eac5b0"/>
    </g>
  </g>
</svg>
