<svg id="Group_164" data-name="Group 164" xmlns="http://www.w3.org/2000/svg" width="135.447" height="111.27" viewBox="0 0 135.447 111.27">
  <g id="Group_160" data-name="Group 160" transform="translate(0)">
    <g id="Group_155" data-name="Group 155">
      <g id="Group_140" data-name="Group 140" transform="translate(17.158 5.838)">
        <g id="Group_139" data-name="Group 139">
          <path id="Path_103" data-name="Path 103" d="M43.739,179.083a2.36,2.36,0,0,1-2.335-2.061,2.293,2.293,0,0,1,2.061-2.473c3.022-.275,5.495-.687,7.555-.962,4.258-.549,7.555-.962,13.737-1.374a6.8,6.8,0,0,0,4.671-1.648c1.374-1.1,3.16-2.473,7.418-2.61,9.479-.275,19.094-.275,28.436,0a11.364,11.364,0,0,1,7.418,2.473,6.8,6.8,0,0,0,4.671,1.648c6.594.275,10.44.824,15.248,1.374,2.2.275,4.671.549,7.693.962a2.276,2.276,0,0,1-.412,4.533c-3.022-.275-5.495-.687-7.693-.962-4.671-.549-8.38-1.1-14.836-1.374-4.258-.137-5.907-1.511-7.281-2.61a6.931,6.931,0,0,0-4.808-1.648c-9.341-.275-18.82-.275-28.161,0-2.885.137-3.709.687-4.808,1.648-1.374,1.1-3.022,2.335-7.281,2.61-5.907.275-9.2.687-13.325,1.236-2.2.275-4.533.549-7.693.962C43.876,179.083,43.739,179.083,43.739,179.083Z" transform="translate(-41.39 -167.75)" fill="#fec10f"/>
        </g>
      </g>
      <g id="Group_142" data-name="Group 142" transform="translate(63.74)">
        <g id="Group_141" data-name="Group 141">
          <path id="Path_104" data-name="Path 104" d="M79.146,258.286a3.84,3.84,0,0,1-3.846-3.846V167.346a3.846,3.846,0,0,1,7.693,0v87.093A3.756,3.756,0,0,1,79.146,258.286Z" transform="translate(-75.3 -163.5)" fill="#fec10f"/>
        </g>
      </g>
      <g id="Group_143" data-name="Group 143" transform="translate(34.892 91.077)">
        <path id="Path_105" data-name="Path 105" d="M86.994,229.8c-18,0-32.694,6.182-32.694,13.874h65.251C119.688,235.982,105.127,229.8,86.994,229.8Z" transform="translate(-54.3 -229.8)" fill="#094969"/>
      </g>
      <g id="Group_153" data-name="Group 153" transform="translate(0 14.733)">
        <g id="Group_149" data-name="Group 149">
          <g id="Group_146" data-name="Group 146">
            <g id="Group_144" data-name="Group 144">
              <path id="Path_106" data-name="Path 106" d="M69.7,233.123c-.137,0-.137-.137,0,0L50.055,174.74a.812.812,0,0,0-1.511,0L28.9,233.26v.412h0l40.8.137v-.687Zm-39.013-.412,18.545-55.36,18.545,55.36Z" transform="translate(-28.9 -174.225)" fill="#00c0c9"/>
            </g>
            <g id="Group_145" data-name="Group 145" transform="translate(94.511)">
              <path id="Path_107" data-name="Path 107" d="M138.5,233.123h0v-.137L118.855,174.74a.812.812,0,0,0-1.511,0L97.7,233.26v.412h0l40.8.137v-.275C138.5,233.26,138.5,233.26,138.5,233.123Zm-39.013-.412,18.545-55.36,18.545,55.36Z" transform="translate(-97.7 -174.225)" fill="#00c0c9"/>
            </g>
          </g>
          <g id="Group_148" data-name="Group 148" transform="translate(104.127 35.542)">
            <path id="Path_108" data-name="Path 108" d="M126.4,210.953A10.852,10.852,0,1,1,115.552,200.1,10.788,10.788,0,0,1,126.4,210.953Z" transform="translate(-104.7 -200.098)" fill="#fff"/>
          </g>
        </g>
      </g>
      <g id="Group_154" data-name="Group 154" transform="translate(31.046 104.951)">
        <rect id="Rectangle_3" data-name="Rectangle 3" width="73.356" height="6.319" fill="#fec10f"/>
      </g>
    </g>
    <g id="Group_159" data-name="Group 159" transform="translate(65.251 5.907)">
      <path id="Path_112" data-name="Path 112" d="M81.071,170.135a2.335,2.335,0,1,1-2.335-2.335A2.315,2.315,0,0,1,81.071,170.135Z" transform="translate(-76.4 -167.8)" fill="#f23612"/>
    </g>
  </g>
  <g id="Group_163" data-name="Group 163" transform="translate(0 74.043)">
    <g id="Group_161" data-name="Group 161">
      <path id="Path_113" data-name="Path 113" d="M49.231,226.466c11.264,0,20.056-3.984,20.331-9.066H28.9C29.037,222.483,37.966,226.466,49.231,226.466Z" transform="translate(-28.9 -217.4)" fill="#094969"/>
    </g>
    <g id="Group_162" data-name="Group 162" transform="translate(94.511)">
      <path id="Path_114" data-name="Path 114" d="M97.7,217.4c.137,5.083,9.066,9.066,20.468,9.066,11.264,0,20.056-3.984,20.468-9.066Z" transform="translate(-97.7 -217.4)" fill="#094969"/>
    </g>
  </g>
</svg>
