<svg xmlns="http://www.w3.org/2000/svg" xmlns:xlink="http://www.w3.org/1999/xlink" width="137.5" height="133.2" viewBox="0 0 137.5 133.2">
  <defs>
    <linearGradient id="linear-gradient" x1="0.5" x2="0.5" y2="1" gradientUnits="objectBoundingBox">
      <stop offset="0" stop-color="#f6d146"/>
      <stop offset="0.975" stop-color="#b39833"/>
      <stop offset="1" stop-color="#7b6923"/>
    </linearGradient>
    <linearGradient id="linear-gradient-2" x1="0.5" x2="0.5" y2="1" gradientUnits="objectBoundingBox">
      <stop offset="0" stop-color="#437afa"/>
      <stop offset="1" stop-color="#223d7d"/>
    </linearGradient>
    <linearGradient id="linear-gradient-3" x1="0.5" x2="0.5" y2="1" gradientUnits="objectBoundingBox">
      <stop offset="0" stop-color="#437dfa"/>
      <stop offset="1" stop-color="#223f7d"/>
    </linearGradient>
  </defs>
  <g id="Group_406" data-name="Group 406" transform="translate(-562.8 -551.3)">
    <path id="Path_1182" data-name="Path 1182" d="M606.4,622.8l.2,29.4-27.5-12.5,20.8-5.2-.1-10.1Z" fill="#f1b74c" fill-rule="evenodd"/>
    <path id="Path_1183" data-name="Path 1183" d="M599.8,624.4l.1,10.1-20.8,5.2-.7-43.2,21.2,8.6Z" fill-rule="evenodd" fill="url(#linear-gradient)"/>
    <path id="Path_1184" data-name="Path 1184" d="M663.1,624.6l.3-19.7,16.9-4-.9,43.1-16.5-6.8Z" fill="rgba(248,215,69,0.73)" fill-rule="evenodd"/>
    <path id="Path_1185" data-name="Path 1185" d="M654.2,607l-.1,14-10,2.5.1-14.1Z" fill="#fae277" fill-rule="evenodd"/>
    <path id="Path_1186" data-name="Path 1186" d="M644.1,623.5l10-2.5,9,3.6-.2,12.6,16.5,6.8-35.5,9.8Z" fill="#f1b74c" fill-rule="evenodd"/>
    <path id="Path_1187" data-name="Path 1187" d="M564.7,656.6l-1.9-90.9,59.9,22.6v96.2l-58-27.9Zm13.7-60.1h0l.7,43.2,27.5,12.5-.2-29.3-.1-15-6.7-2.7Z" fill-rule="evenodd" fill="url(#linear-gradient-2)"/>
    <path id="Path_1188" data-name="Path 1188" d="M622.8,684.5V588.3h0l77.4-16.7h.1l-2.4,90.8-75.1,22.1Zm75.1-22.2h0l2.4-90.7-77.5,16.7v96.2Z" fill="#a5a5a5" fill-rule="evenodd"/>
    <path id="Path_1189" data-name="Path 1189" d="M622.8,588.3h0l-59.9-22.6,76.4-14.4,60.9,20.2-77.4,16.8Zm12.5-28.1h0l-36,7,28.3,10.3,7.6-1.6,28.6-5.9Z" fill="#4689fb" fill-rule="evenodd"/>
    <path id="Path_1190" data-name="Path 1190" d="M700.3,571.6l-2.4,90.7-75.1,22.2V588.3l77.5-16.7Zm-36.9,33.3h0l-9.2,2.2-10,2.4-.1,14.1-.2,30.3,35.5-9.8.9-43.2Z" fill-rule="evenodd" fill="url(#linear-gradient-3)"/>
    <path id="Path_1191" data-name="Path 1191" d="M635.3,576l-7.6,1.6-28.4-10.4,36-7Z" fill="#f3c149" fill-rule="evenodd"/>
    <path id="Path_1192" data-name="Path 1192" d="M635.3,560.2l28.6,9.8-28.6,6Z" fill="#fae277" fill-rule="evenodd"/>
  </g>
</svg>
