<svg xmlns="http://www.w3.org/2000/svg" xmlns:xlink="http://www.w3.org/1999/xlink" width="191.1" height="190.2" viewBox="0 0 191.1 190.2">
  <defs>
    <radialGradient id="radial-gradient" cx="0.499" cy="0.384" r="0.615" gradientUnits="objectBoundingBox">
      <stop offset="0" stop-color="#fff"/>
      <stop offset="0.803" stop-color="#d9d9d9"/>
      <stop offset="1" stop-color="#fff"/>
    </radialGradient>
    <linearGradient id="linear-gradient" x1="0.5" x2="0.5" y2="1" gradientUnits="objectBoundingBox">
      <stop offset="0" stop-color="#53d8ff"/>
      <stop offset="1" stop-color="#2a6c80"/>
    </linearGradient>
  </defs>
  <g id="Group_2694" data-name="Group 2694" transform="translate(-129.9 -79.9)">
    <path id="Path_993" data-name="Path 993" d="M320.1,175A95.1,95.1,0,1,0,225,270.1,95.129,95.129,0,0,0,320.1,175Z" fill="url(#radial-gradient)"/>
    <g id="Group_397" data-name="Group 397">
      <path id="Path_994" data-name="Path 994" d="M210.5,264.3Zm-36.6-131c-.2.4-2,1-2.7,1.3a2.589,2.589,0,0,0-1.1.7,2.182,2.182,0,0,0-.5.4c-.6.4-1.2.6-1.8,1a17.678,17.678,0,0,1-1.7,1.2s-.8.4-.8-.3v-.2h.2c.1-.5.1-1,2.6-2.1l.1-.1c.2-.1.2-.1.7-.6h-.1c.8-.8,1.3-1.3,2-1.9h.1c.3-.2.4-.4.6-.5h.1c0,.1.1.1.3.1a13.4,13.4,0,0,1,2,.1.746.746,0,0,1,0,.9Zm-3.5-1.9s-1-.1-.4-1.8c0-.1,0-.1.1-.2H170l-.2.3h0c0-.1.1-.1.1-.2a8.208,8.208,0,0,0-1.6,3c0,.3-.2,1-1.5,1.8h-.5a4.084,4.084,0,0,1,.5-2.1h.1c.8-1.8,1-2.4.6-3.1-.3,0-.7-.1-1-.1-1.6.9-3.1,1.9-4.2,5.4a4.653,4.653,0,0,1-1.3,2.3h-.1c-.2.1-.3.2-.5.1l-.2-.2a.756.756,0,0,1,.4.1c-.2-.2-.4-.6.8-3.1h-.1a21.571,21.571,0,0,0,.9-2h.1a13.354,13.354,0,0,1,1.5-3h-.1c1.4-1.5,2.7-1.4,2.7-1.3.7.1,1.1.7,1.7.9h.2a3.906,3.906,0,0,1,1.7.2c.1,0,.2,0,.2.1.2.1.2.4.3.9.2.1.2,1.2-.1,2Zm-1.7-6.7a8.137,8.137,0,0,1-1.2,1.3.756.756,0,0,1-.4-.1c-.2-.1-.5-.3-.7-.4s-.4-.1-.6-.2c-.1,0-.1-.2-.1-.2v-.5a5.3,5.3,0,0,0-2,.6,1.078,1.078,0,0,1-.7.2c-.8-.2.3-1.5.5-1.6a5.638,5.638,0,0,1,1.2-.4,8.422,8.422,0,0,0,1.4-.8c1-.6,1.6-1,1.9-.9a.1.1,0,0,1,.1.1v.1a7.6,7.6,0,0,0,.1,1.4,3.052,3.052,0,0,0,.5.9.187.187,0,0,1,0,.3.138.138,0,0,1,0,.2Zm-19.6-5.6a5,5,0,0,0-.5.7,21.945,21.945,0,0,1,1.5-2.2h0c.5-.7.9-1.4,1.4-2.1h0c.3-.4.7-.9,1.1-1.4-.1,0-2.2,3.3-3.5,5Zm80.1,116.4c0-.3-.1-.3-.2-.3v-.1c-.1-.3-.2-.7-.3-1-.2-.6-.1-.6,0-.6-1.1-1.5-1.1-1.5-4.3-2.6h-.5c-.5-.4-1.1-1-1.5-1.4s-.3-.4-.2-.4c-2.4-1.4-5.4-.9-7.8-2.3-.8-.4-1-.4-1.1-.4l-.4-.3c-1.9-1-2.6-1.1-4.1-.9a6.057,6.057,0,0,0-1.1,2.9h-1c-.1-.2-.3-.5-.4-.7.2-.2.5-.4.7-.6.4-.5.4-.5.3-.5l.2-.3a9.439,9.439,0,0,1,.3-.9c0-.7.1-.7.2-.7-1.7-1.9-3.5,1-5.3,1.1-.2-.2-.4-.6-.6-.8l.3-.4.1-.1.3-.1c2.7-1,2.9-1.5,3.4-2.7h-.3c-.6-1.5-.7-1.6-1.8-1.9,0-.1.1-.1.3-.1-.2-.3-.2-.3-2.1-3.1h-.4l-.2-.3c-.4-.5-1-1.1-1.5-1.6-.1-.2,0-.2.2-.2-2.6-2.5-2.6-2.5-6.7-1.7a10.383,10.383,0,0,1-1.2-1.7h-.4c-.6-.8-1.3-1.5-1.9-2.2h.4l-.1-.1a10.19,10.19,0,0,0-3.6-1.2,7.106,7.106,0,0,1,.4-2c0-.2-.1-.2-.2-.2a13.551,13.551,0,0,0,.2-2c.1-.2.2-.2.2-.2l-.4-.6H187c-.3.7-.8,1.6-1.1,2.2-.8-.5-1.4-1.3-2.2-1.8h.5a7.106,7.106,0,0,0-2-.4c-.6.3-.5.3-.5.3a2.722,2.722,0,0,0-.8,1.6c-.3.5-.4.5-.5.5-1.2-2-1.7-3-3.7-1.7a4.053,4.053,0,0,1-.9-.5c-.1-.4,0-.4.1-.3-.3-.6-.6-1.3-.9-1.9-2.8.1-2.8,3.1-2.7,5.3a4.054,4.054,0,0,1-.5-.9c-.2-.6-.3-.6-.4-.6a10.377,10.377,0,0,1-.3-2.3h.2v-.1a23.815,23.815,0,0,0,.5-2.6c-.2-.2-.5-.4-.7-.6a16.331,16.331,0,0,0-2.4,1.7c-1.8,1.2-2.2,3.4-3.4,5.1-.3,0-.7-.1-1.1-.1a16.286,16.286,0,0,0-1.1-1.7,4.538,4.538,0,0,0-.9-.5,3.552,3.552,0,0,1-.9-.4,2.186,2.186,0,0,0-.3.5,17.676,17.676,0,0,1-1.7,1.2c-1.3-.6-1.3-.6-2-1.9h-.2a21.848,21.848,0,0,1-.9-2.3h.2a15.457,15.457,0,0,1-.4-3.1c-.1-.3-.1-.3-.2-.3v-2.3h.2a4.02,4.02,0,0,0-.3-2.9c-.4-.7-.5-.7-.6-.7a7.942,7.942,0,0,0-1.4-1.7,10.085,10.085,0,0,0-1.8.9c-.6-.3-1.4-.6-2.1-.9V188c.1-.4.2-.4.2-.4a16.17,16.17,0,0,0,0-3.2c-.1-.4-.1-.4-.2-.4a4.471,4.471,0,0,1,.7-2.3h.1a6.583,6.583,0,0,0,.7-3c-.1-.5-.2-.5-.2-.5-.1-.3-.2-.7-.3-1.1,0,0-2.3-.8-3.9.3-.2,1.3-.2,2.6-.3,3.8-1.7.2-1.7.2-2.5,1.2-1-.4-1-.4-1.8-2.4.1,0,.1,0,.2.1a16.617,16.617,0,0,1-1.2-3.9h-.2a13.4,13.4,0,0,1-.1-2l.1-.5c0-1.8.1-2,.2-3.6h-.1a11.383,11.383,0,0,1,.5-2.3h.1a15.115,15.115,0,0,0,.6-3.5h-.2a3.444,3.444,0,0,1,.4-2l.2-.2.3-.3.3-.2a6.351,6.351,0,0,0,2.1-2.4h0a2.881,2.881,0,0,1,3.5,1.6h.9c.3-.6.3-.6.2-.7l.1-.3c.2-.2.5-.4.7-.6.6.1.6.1,3.8-.3a14.621,14.621,0,0,0,.5,2,3.553,3.553,0,0,1,1-.2c.9,3.1,1.3,6.4,2,9.6h.7a9.062,9.062,0,0,0,1.1-2.2c0-.5,0-.5-.1-.5a13.4,13.4,0,0,0,.1-2c.1-.3.1-.3.2-.3-.1-1-.1-2.1-.2-3.1-.1-.5-.2-.5-.3-.5-.1-.6-.2-1.3-.3-1.9.1-.5.2-.5.2-.5a5.31,5.31,0,0,1,2.4-3.2h0c.4-.4,1-1,1.4-1.5.5-.6.6-.6.6-.6a15.417,15.417,0,0,1,2.4-2.7c1.8-.8,1.8-.8,2.5-1.6,0-.3-.1-.6-.1-.8h.3a6.725,6.725,0,0,1-.2-3.4h-.2c.7.1,2.4.4,2.6-2h.2a2.476,2.476,0,0,1,.8-1.4c.3-.1.6-.3.9-.4a6.468,6.468,0,0,0,.4-1.3h-.2c1.5-1.3,3.2-.1,4.8-.3l.3-.9c0-.6.1-.6.1-.5-.4-1.8-.3-2,.3-3.1h-.1c1.1-1,3-.4,4-1.8h.1l.7-.7c.2,1.1,0,2.2.2,3.3.3,0,.7-.1,1-.1l.3-.2c2.2-1.5,4.8-1.6,7.1-2.6.5-.6.5-.6.5-.7a3.4,3.4,0,0,0-.1-1c-.1-.5-.2-.5-.3-.5-.1-.3-.1-.7-.2-1a5.373,5.373,0,0,0-1.6,1,5.417,5.417,0,0,0-1.1-.2c.1-.4.1-.8.2-1.2a4.084,4.084,0,0,0-1.9.1l-.3-.9c.1-.1.1-.1.2-.1,1-1.8,1-1.8.7-2.9H188l-.9-.3a4.265,4.265,0,0,1-.9.2l-.3.1c-1.3.7-2.8,1-4.2,1.6a19.83,19.83,0,0,1,1.1-2h-.1c1.2-1.5,3.2-1.4,4.8-2.2l.1-.1a12.665,12.665,0,0,1,1.8.6h0a17.7,17.7,0,0,1,.1,2.3c2.1-.4,2.2-.8,2.4-1.9l.2-.1c1.1-.7,1.1-.7,3.7-1h.1c.4-.4,1.1-1,1.6-1.4.1.3.2.8.3,1.1-3.7,4.3-3.6,5.2-3.5,5.8,3.2,0,3.2,0,3.8.3a5.18,5.18,0,0,0,.9.3l.3-.3a3.4,3.4,0,0,0,1-.1c.2.2.5.4.7.6a1.616,1.616,0,0,1,.5-.2c.3-1.1.3-1.1-.2-3H201a2.748,2.748,0,0,0-1-1.6,2.92,2.92,0,0,0-.9.2c-.2-.2-.5-.4-.7-.6h.3a3.508,3.508,0,0,1-.8-.5A18.575,18.575,0,0,1,199,122c.3-.5.2-.5.2-.5.4-.5.9-1.3,1.3-1.8h.1v-1c-1.4-.7-1.5-1.1-1.5-1.8h-.2a9.819,9.819,0,0,0-.8-1.8h.3a6.929,6.929,0,0,0-2-.3,4.973,4.973,0,0,1-.1-2.1c0-.3-.1-.3-.2-.3v-1c0-.8,0-.8.1-.8a13.663,13.663,0,0,1-.2-1.9c-.1-.6-.2-.6-.3-.6-.3,0-.7-.1-1-.1a12.162,12.162,0,0,1-2.5,2.1,9.5,9.5,0,0,1-1.8-.6c0-.3.1-.7.1-1,.2-.2.5-.4.7-.6h0a5.547,5.547,0,0,1,.8-.6l-.6-.9c-.2-.1,0-.1.2-.1-.3-.1-.7-.3-1-.4-.4-1.2-.8-2.4-3.8-1.4-.5.4-.5.4-3.3,3.8a9.436,9.436,0,0,0-.9.3c-.2,3.7-.2,4-2.9,5.6a2.506,2.506,0,0,1-.7-.4h.2a2.92,2.92,0,0,0-.9-.2c-2.6,6.4-2.6,6.4-4,6.2a2.92,2.92,0,0,1-.2-.9,5.716,5.716,0,0,1,.7-.8h.1c.3-.5.7-1.3,1-1.9h-.2l.1-.1-.7.7c0-.3.1-.7.1-1,.1-.5,0-.5,0-.5a9.819,9.819,0,0,0,.8-1.8h.2c0-.3-.1-.7-.1-.9-1.3.1-3.2.4-3.7-2.2-.2-.3-.3-.3-.4-.3a4.184,4.184,0,0,0-.7-.1l-.3.1-.1-.1h-.1l.6-.9c.5-.8.5-.8.6-.8V108a10.428,10.428,0,0,1,1.7-2.2h-.1a11.369,11.369,0,0,1,1.6-1.5h0c.9-.5,1.9-1,2.8-1.5l.8-.4,2-1a2.177,2.177,0,0,0,.8.5,3.508,3.508,0,0,0,.8-.5.31.31,0,0,1,.2-.1c.4-.4,1-.9,1.5-1.3-.4,1.2-.4,1.2-1.8,2.2a15.235,15.235,0,0,0,3.1-.5c-.1.3-.3.7-.4,1,.3.1.7.2,1,.3l.8-.8c.2-.3.2-.3.3-.3v-.2a3.083,3.083,0,0,1,0-1.9c0-.2,0-.3-.1-.3h-.2l-.3.1c-.4-.2-.4-.2-.5-.2v-.1l.7-.7c1.8.9,4.1-.5,4.9-1.9-.1-.2-.1-.3-.2-.3v-.1c1.4-.9,1.5-.9,2.8-.7l.3-.2h.1l.1-.1.6-.5c-.2.2-.4.5-.6.7a9.44,9.44,0,0,0,.3.9,7.333,7.333,0,0,1-2,1.4l.6.7h0c.6-.4.6-.4,2-1.4a3.553,3.553,0,0,1,.2,1c-.1.1-.3.1-.4.2-1.3.5-2.3,1.5-3.7,1.8-.2,0-.3-.1-.5-.1a6.889,6.889,0,0,0-.7-.1l-.1.1a6.1,6.1,0,0,0-2.2,2.3c2.9-.5,4.1.1,4.4,2.1.2-.1.4-.3.6-.4h0c.4.8.7,1.4,1.9,1.3h.1a5.716,5.716,0,0,0,.7-.8,3.508,3.508,0,0,0,.8.5c.3-.1.6-.3.9-.4.2-.4.1-.4.1-.4a4.013,4.013,0,0,0,.3-1.5h.2a10.549,10.549,0,0,1-.5-1.9c.2-.4.2-.4.1-.4l.1-.1.9.3c.1.3.3.6.4.9.3.1.7.1,1,.2h0l.3-.2c.4-.2,1-.6,1.4-.8h-.1l.7-.7a2.177,2.177,0,0,1-.5-.8h.4a5.547,5.547,0,0,0-.8-.6,3.553,3.553,0,0,0-.2-1l-.9-.3c-.4-.3-.4-.3-.5-.3v-.1l.6-.9c.2-.3.3-.3.3-.3a2.177,2.177,0,0,0,.5-.8,5.716,5.716,0,0,0-.7-.8c-.7-.4-.8-.4-.9-.4v-.1c-.1-.3-.2-.7-.3-1,0-.2.1-.2.2-.1.1-.3.1-.6.2-.9-1.2-.6-1.6-.8-3.8-.4h0c-1.8,1.3-1.8,1.3-2.8,1.5.2-.2.6-.4.8-.6l.4-.2.4-.2a16.675,16.675,0,0,0,1.6-1.2,9.083,9.083,0,0,0-6.4,3.4c.2.2.6.4.8.6-.6,1-.7,1.2-1.8,1.6H189a13.966,13.966,0,0,0-1.7.9c.2-.3.5-.6.7-.9.2-.2.2-.2.1-.2a5.548,5.548,0,0,0,.6-.8c-.3.1-.7.1-1,.2a4.054,4.054,0,0,1,.5-.9c.1-.1.1-.1.2,0,.4-.4.9-1,1.3-1.4.5-.5.5-.5.4-.5-2.3.2-3.4,2.2-5.3,3.1-.5.2-1.2.6-1.7.8a8.635,8.635,0,0,1,1.4-1.3h-.1c.3-.2.7-.5,1-.7l.8-.5.4-.3c-.2,0-.2,0-4.1,2.1a9.465,9.465,0,0,1-1.8-.5,4.054,4.054,0,0,0,.5-.9l.3-.2a6.325,6.325,0,0,0,3-.7h0l.1-.1a4.673,4.673,0,0,0,1.4-1.4c.5-.4.4-.4.4-.5.5-.3,1.1-.7,1.7-1a.31.31,0,0,1,.2-.1c1.8-.8,1.8-.8,2.4-1.5l.3-.1h0c.6-.2,1.3-.5,1.8-.7.3-.1.3-.1.4-.1,1.8-.7,1.8-.7,2.5-1.4.1-.1.1-.1,0-.1l-2.1.6.9-.6.5-.5.2-.1c.4-.2,1-.4,1.5-.6a18.548,18.548,0,0,0-4.8,1.2h1a17.6,17.6,0,0,1-2,.9c.3,0,.6-.1.9-.1a9.819,9.819,0,0,1-1.8.8c0,.3-.1.6-.1.9a45.338,45.338,0,0,0-4.2,2.2l.1-.1h0c.6-.3,1.3-.8,1.9-1.1h0a4.053,4.053,0,0,0,.9-.5l-.9-.3c.5-.3,1.1-.8,1.6-1.1l.4-.2c.3-.1.6-.3.9-.4-.6-.1-2.4-.5-7.1,2.3.2,0,.5.1.7.1h0l.5-.2a3.552,3.552,0,0,0,.9-.4,64.83,64.83,0,0,1-5.7,3.3c.4-.4.9-.8,1.3-1.2h0l.1-.1a5.547,5.547,0,0,1,.8-.6c-.3,0-.8-.1-1.1-.1h0a4.671,4.671,0,0,1,1-.5h-.2a3.508,3.508,0,0,1,.8-.5l-.9.3c.5-.5.4-.5.4-.4a15.387,15.387,0,0,1-1.9.8c.5-.3,1.3-.7,1.8-1h-.1l3-1.5c-1.5.7-3.5,1.6-5,2.4-7.3,4.1-8,4.5-13,8.2l-4.3,3.4-.1.1c-.8.7-1.8,1.6-2.6,2.3h0c-3.8,3.6-5,4.9-6.7,6.8.2-.3.6-.6.8-.9l.2-.2a18.326,18.326,0,0,1,2.3-2.4l.2-.2.4-.4c-6.9,7.3-27.8,29.5-24.4,61.9a1.087,1.087,0,0,1,.5.1c.1-.3.1-.7.2-.9,0-.7-.1-.7-.1-.7-.1-.6-.1-1.5-.2-2.1v-.5l-.1-.5a19.894,19.894,0,0,1,.3-3.1h-.1v-2c0-.5.1-.5.1-.5.1-1.3.1-1.3.3-3.3v-1a11.077,11.077,0,0,1,.2-1.9l.1.1a16.552,16.552,0,0,1,.6-2.1c-.2,17.5-.4,31.3,4,36,.3,0,.7-.1,1-.1a4.072,4.072,0,0,1,1.2,1.7c.3,0,.6.1.9.1h-.1l.3-.9c.3-.1.7-.2,1-.3,14.9,20,14.9,20,16.8,20.8a7.016,7.016,0,0,1,.6-.9c.1-.8.1-.8.2-.8.2-.2.6-.3.8-.5,1.7,1.6,1.7,1.6,3.9,22.3.1,1.2,32.1,34,32.4,34.3,4.1,3.3,8.4,6.8,19.3,7.6l1.3.1h0a2.768,2.768,0,0,1-.9-.1l-.6-.1-.8-.1a3.711,3.711,0,0,0-.9-.2l-.1-.1-.7-.3h.1a5.3,5.3,0,0,1-2.2-.6,3.553,3.553,0,0,1,1,.2c.2-.1.2-.1.1-.1-.3-.1-.6-.3-.9-.4h0l-.1-.1h1.7a2.23,2.23,0,0,0-.3-.5l-.3-.5h.1a10.084,10.084,0,0,0-1.8-.9h-.2c-.3-.1-.6-.3-.9-.4l-.3-.3c-.2-.2-.4-.6-.6-.8,2.3,1.6,2.3,1.7,3.9,1.5l.3-.6c.1-.3.2-.7.3-1l-.1-.1v-.1l-.2-.7a3.509,3.509,0,0,0,.5-.8c.1-.5.1-.5,0-.5V262a3.736,3.736,0,0,0,.6-.7c.1-.1.1-.1.2-.1,0-.3-.1-.7-.1-1-.4-.5-.4-.5-.5-.5-.1-.3-.3-.6-.4-.9l.1-.1a7.958,7.958,0,0,1,5.6-2.5c.7-.3.7-.3.8-.3l.1-.1c.1-.3.3-.7.4-1,.2-.7.2-.7.1-.7a4.053,4.053,0,0,1,.5-.9c.3-.4.3-.4.4-.4a3.519,3.519,0,0,0,.3-2h-.2c0-.3.1-.7.1-1,.1-.4.2-.4.2-.4a7.8,7.8,0,0,0,.3-2.2h-.2c-.1-.3-.2-.7-.3-1.1,0-.4.1-.4.1-.4a2.94,2.94,0,0,1,1.2-2.3h-.1c.5-.5,1-1.1,1.5-1.6h.1a5.665,5.665,0,0,0,1.6-2.5h-.2c.1-.3.3-.7.4-1,.3-.7.4-.7.5-.7,1.6-.8,1.8-1.5,1.9-2.1Z" fill="url(#linear-gradient)"/>
      <path id="Path_995" data-name="Path 995" d="M199.8,85.6a1.854,1.854,0,0,1-.7.2h0c-1.4.5-1.4.5-1.6.5.1-.2.3-.1.4-.2-.2-.1-.4.1-.6,0a6.9,6.9,0,0,1,1.7-.6h.1c.3-.1.6-.1,1-.2a7.213,7.213,0,0,1,1.1-.2l-1.4.5Z" fill="#0eabe9"/>
      <path id="Path_996" data-name="Path 996" d="M200.7,86.4c-1.4.6-1.3.5-1.3.4.1-.3.2-.3.9-.6.3-.1.3-.1.3-.2-.2-.1-.4,0-.6,0h0a6.685,6.685,0,0,1,3.1-.9c.4.2-2.3,1.3-2.4,1.3Z" fill="#0eabe9"/>
      <path id="Path_997" data-name="Path 997" d="M194.6,90.9a7.931,7.931,0,0,1-.9.4l-1.4.1c-.1-.5,2.9-1.4,3.2-1.5h.2l-.3.4c0,.1-.3.3-.8.6Z" fill="#0eabe9"/>
      <path id="Path_998" data-name="Path 998" d="M201.6,90a2.179,2.179,0,0,1-2.6.1c-.2-.1-.4-.2-1.3-.1-.1-.1-.3-.2-.4-.3.2-.3.2-.3,1.2-1.2.2-.2.3-.5.5-.7a4.676,4.676,0,0,1,.6-.5,7.764,7.764,0,0,1,2.5-1.3c-.1,0-.1.1-.2.1.1,0,.2-.1.4-.1-.2.1-.2.1-.7.6h-.1a2.186,2.186,0,0,0-.3.5,3.03,3.03,0,0,1-.7.5h.1c-.2.2-1.3.9-1.4,1.2.2.1.4,0,.6.1a1.421,1.421,0,0,1,.6.2.367.367,0,0,1,.3.1,7.755,7.755,0,0,0,.9.1c.2,0,.3.2.3.4h-.2c.1,0,0,.2-.1.3Z" fill="#0eabe9"/>
      <path id="Path_999" data-name="Path 999" d="M240.6,100.7a3.271,3.271,0,0,1-.1,1.3h0v.1q-1.2.15-1.2.6a2.227,2.227,0,0,1-2.1,1.3,1.874,1.874,0,0,1-.7-.6,1.172,1.172,0,0,0-1.2-.6c-.3,0-.5.1-.7.1-.1,0-.2,0-.4-.2s-1.9-1.9-1.2-2.9a.494.494,0,0,1,.3-.1,3.011,3.011,0,0,1,2,.7h.7c.6-.2,1.4-.2,1.9-.7.2-.1.3-.2.4-.2a4.644,4.644,0,0,1,1.8.6h.2l.2.1c-.1.2.1.3.1.5Z" fill="#0eabe9"/>
      <path id="Path_1000" data-name="Path 1000" d="M166,181.5l-.3.3c-.4.5-1.5.1-2.1-.3-.1,0-.1-.1-.2-.1a.349.349,0,0,1-.1-.2l-.3-.3c-.6-.8-1.4-1.5-2-2.3a5.3,5.3,0,0,1-.6-1c-.4-.6-1.7-.7-2.8-.7-2.4-.2-2.4-.2-2.5-.3-.2-.1-.4-.3-.4-1v-.4c.1,0,.1,0,.2-.1V175a8.882,8.882,0,0,1,3.1-.8,5.262,5.262,0,0,1,2.3.8,17.326,17.326,0,0,1,1.7,2.1h-.4q1.5,1.8,2.4,1.8c.4,0,.9.5,1.3,1h.3c.5,1.3.4,1.6.4,1.6Z" fill="#0eabe9"/>
      <path id="Path_1001" data-name="Path 1001" d="M179.4,187.3a.845.845,0,0,1-.2.6,3.079,3.079,0,0,1-.6.6.775.775,0,0,1-1-.2c-.6-.7-.6-2.8.5-2.8.8.1,1,1.2,1.1,1.6h.2v.2Z" fill="#0eabe9"/>
      <path id="Path_1002" data-name="Path 1002" d="M285.3,137.1a2.1,2.1,0,0,1-.2,1.7c-.1.1-.3.4-.8.1-1.3-.7-1.7-3.2-1-3.5h.1q.45,0,1.2.9h.2a1.578,1.578,0,0,1,.5.8Z" fill="#0eabe9"/>
      <path id="Path_1003" data-name="Path 1003" d="M278.3,138.6c.1.2.1.2-.1.6-.2.5-.9.3-1,0a1.412,1.412,0,0,1,.1-.9.1.1,0,0,1,.1-.1l.1-.1a.1.1,0,0,1,.1-.1c.1-.1.1-.1.2-.1.2,0,.5.5.5.7Z" fill="#0eabe9"/>
      <path id="Path_1004" data-name="Path 1004" d="M293.3,141.3c.2.9-.5,1.5-1,1.2-.1,0-.1-.1-.2-.1-.4-.3-.7-.6-1.1-.9-.3-.2-.7-.4-1-.6-.3-.3-.5-.4-.6-.6-.5-.6.1-.8.2-.8h.1a10.65,10.65,0,0,1,1.8,0c.4.1.7.5,1,.8h.2l.2.3c.1.2.3.5.4.7Z" fill="#0eabe9"/>
      <path id="Path_1005" data-name="Path 1005" d="M258.1,116.8a1.718,1.718,0,0,1,.2.8h-.1a2.4,2.4,0,0,1-.3,1.3,10.755,10.755,0,0,1-1.3,1.5c-.5.4-1,.6-1.9-.2-.4-.4-1-1.1-.7-1.5a.614.614,0,0,0,.1-.6c-.2-.7-.9-1.1-1.1-1.8-.1-.4-.1-.4.2-.9h.4c.2-.1.2-.1.3-.7,0-.5.1-.9.8-.9a2.563,2.563,0,0,1,2.2,1.3h.2a5.575,5.575,0,0,1,1,1.7Z" fill="#0eabe9"/>
      <path id="Path_1006" data-name="Path 1006" d="M267.4,118.5a2.178,2.178,0,0,1-.6,2.2c-.3.2-.9.1-1.8-.1-1.5-.2-1.7-.2-1.9,0-.3.3,0,1-.6,1.1a2.268,2.268,0,0,1-.4-.1,1.54,1.54,0,0,1-.3-1.1c-.9-.2-2.2,1-2.6-.2-.2-.6.6-3.5.8-4.1a1.689,1.689,0,0,0,.2-.5c-.3-.3-.4-.4-1.9-.8-1.1-.3-2-.6-4.3-2.9-.9-.9-1.4-2.1-.6-2.1,1,0,1,0,1-.2,0-.4,0-1.2.5-1.3l.8.3c.1,0,.1,0,2,.1-.4,0-.7.1-1.1.1,1.4-.1,2.5,0,2.7,1.4h.1c0,1.7,0,1.7.9,2.6h-.2c.6.5,1.3,1.1,1.9,1.6h.2c1.1.9,2.4,1.4,3.5,2.3h-.2c1.2,1,1.4,1.4,1.5,1.7h.2c.2-.1.2,0,.2,0Z" fill="#0eabe9"/>
      <path id="Path_1007" data-name="Path 1007" d="M309.6,212.6a28.938,28.938,0,0,1-2.2,4.3.349.349,0,0,1-.2.1c-.1-.1,0-.5.5-1.6h-.1c.3-.7.5-1.3.8-2.1h.1c.2-.4.3-.7.4-.9.5-.8.9-.9,1-.8-.1,0,0,.2-.3,1Zm-5.2-84.8a1.171,1.171,0,0,1-.7,1.8c-.1,0-.1,0-1.3-.8l.1-.1c-2.1-1.4-1.7,1-1.7,1,.2.8.2.8.1.9-.1.3-.3.3-.9.5-.7.1-.2,1-.5,1.4-.1,0-.1,0-.2-.2-.3-.6-.5-1.2-.9-1.9h.1a28.225,28.225,0,0,1-1.8-2.9h-.1c-.2-.7-.3-1.4-.6-2.2h.1c-.3-.9-.6-1.6-1.1-2.8l-.1-.3h0c-.5-1.2-.2-1.3,0-1.3a21.222,21.222,0,0,1,3.2,3.2l.3.3c.1-.1.2-1.3-1-3.3h0c-.7-1.2,0-1.3,0-1.3s.3.1.6,1l.1.3a1.885,1.885,0,0,0,.4.9c.6.5,1.3.8,1.9,1.3,2,1.8,3.1,2.8,4,4.5Zm-3-9.2a2.185,2.185,0,0,1,.3.5h-.1l-.4-.4a29.807,29.807,0,0,0,2,3.2v-.1a61.945,61.945,0,0,1,6.9,10.9,6.394,6.394,0,0,1,.6,1.6,3.27,3.27,0,0,1-1.3-1.4h0a17.977,17.977,0,0,1-1.1-2h0c-.3-.6-.5-.8-.6-1.1,0-.2.1-.3-.9-2.3h0a3.712,3.712,0,0,0-1.3-1.6v-.1c-.3-.1-.3-.1-2-2.4h0c-.5-.6-.9-1.1-1.3-1.6l-.1-.2h0a25.958,25.958,0,0,1-2-2.8h0c-.5-.8-.5-.8-.5-1h.4c0-.2,0-.2-.9-1.6h0c-.2-.3-.3-.5-.5-.8a24.51,24.51,0,0,1,2.8,3.2Zm-24.7-17.5.2.2.2.3c-.1,0-.2.1-.3.1a4.88,4.88,0,0,1-2-1.1l-.1-.1h0c-.2-.2-.6-.5-.3-.5a5.755,5.755,0,0,1,2.3,1.1Zm-20.6-16h0c-.6-.2-1.4-.4-2-.6,2.4.8,6.3,2.2,9.9,3.8h0l.2.1-.9-.3c-.5-.1-.5-.2-.5-.2l.3.3a17.6,17.6,0,0,0,2,.9l.2.1.1.1c.2.2.4.5.6.6-.4-.1-.4,0-.4,0h0a9.266,9.266,0,0,1,1.4,1.4c.5.3,1.2.7,1.8,1.1-.1,0-.3-.1-.4-.1h0l-.1-.1c-.7-.4-1.5-.8-2.2-1.2s-.7-.4-.7-.3l-.5-.2c.1.1.1.1,5.3,3.2h0c-.5-.2-1.2-.6-1.7-.8,1,1.2,1,1.2,3.1,2.5h-.9a2.185,2.185,0,0,1,.3.5,6.632,6.632,0,0,1-1.9-.9c-.4-.2-.4-.2-.5-.2-.3-.1-.6-.3-.9-.4a2.769,2.769,0,0,0,.9-.1c-.4-1.5-.8-1.7-3.6-2.8l-.3-.1-.9-.3a2.777,2.777,0,0,1-1.8.3c-.7-.2-.7-.2-.6-.2a41.226,41.226,0,0,0-4.1-1h-.1c-.7-.1-1.6-.3-2.3-.4a2.483,2.483,0,0,1-.1.9l.1.2c.4.6.8,1.4,1.2,2h0c8.5,16.6,8.5,16.6,11.5,15.5a9.449,9.449,0,0,0-.3-.9c-.1-.3-.1-.3,0-.3a9.449,9.449,0,0,0-.3-.9c2,1.3,3.5,3.2,5.2,4.8a3.383,3.383,0,0,0,2.1-1.9c-.1-.3-.2-.7-.3-1-.4-.5-.5-.5-.5-.5a15.262,15.262,0,0,1-1.1-1.6h.1c-.3-.5-.6-1.2-.9-1.8l-.6-.7a6.345,6.345,0,0,0-2.5-1.2h.2c-1.1-.8-1.1-.8-1.5-1.8l.3-.9a10.146,10.146,0,0,0-.9-1.3h0a13.021,13.021,0,0,0-1.8-1.5l-.6-.4a2.177,2.177,0,0,0,.8-.5c1.2.4,1.4.4,2.4,2.2.9,2,1,2.1,5.4,5.1,1.2-2.4,3.1-.9,4.1-.1-1.7,1.1-1.7,1.1-2,1.7l2,1c-.2.2-.6.4-.8.6.1,1.2.2,1.5,2.7,4.4-.2.5-.3.5-.4.5-1.9-.3-2.6.4-2.9.7h-.1l-.7.3h0a.367.367,0,0,0-.3.1h-.5l-.4.2c-.4-.2-.5-.2-.6-.2-.2-.2-.6-.4-.8-.6a5.833,5.833,0,0,1-.8-1h.1c-1.3-1.8-1.3-1.8-2.3-2a3.508,3.508,0,0,0-.5.8c.8,2.2.8,2.2,3.7,4.6h-.2a6.079,6.079,0,0,0-1.9.1c-.1.2-.3.5-.4.7l-.1.1c-.1.7-.1,1.7-.2,2.5-.2.4-.4.4-.5.4a3.45,3.45,0,0,0-.9.8c.2.6.4,1.5.6,2.1-.3.4-.3.4-3.4,2.2l-.3.4a12.9,12.9,0,0,1-1.6.9v1c4.9,1.4,6,1.8,6.4,6.9-2.5,2-5.4.5-8,1.1-.9,1.4-.4,9.8,3.4,12.9,2.3-.4,2.3-.4,4.2,2a5.547,5.547,0,0,0,.6-.8c.1-.2.1-.2.2-.2.1-.3.1-.7.2-1,.1-.1.2-.1.3-.2a3.578,3.578,0,0,0,4-2.3c.1-.5.1-.5.1-.4a13.017,13.017,0,0,0,.8-1.7c-.4-.6-.3-.6-.2-.6-.8-1.1-.8-1.2-.2-2.9l.1-.4.2-.5a5.716,5.716,0,0,1,1.6-1.1c0-.3.1-.6.1-.9h.1c-.5-2.5-.5-2.5-.3-3.2,2.4.5,2.4.5,3.1.3l.6-.9a3.882,3.882,0,0,1,1.1-1.5c2.6.8,2.6.8,12.5,10.1.4-.4.4-.4.3-.4-.3-.5-.6-1.2-.9-1.7-.1-.3-.1-.3,0-.3a12.091,12.091,0,0,1-1.2-2.3l.8-.4v-.2l.1-.2c-.4-.2-.5-.2-.6-.2a14.44,14.44,0,0,0-2.6-1.6.367.367,0,0,0,.3-.1l-.2-.1a10.414,10.414,0,0,1-2.9-1.9l-.5-.5h-.2A19.227,19.227,0,0,0,285,129c-.4-.4-.4-.4-.3-.4a5.273,5.273,0,0,1-1.1-1.5c.7-.1,6.9-.4,15.5,16.1a2.177,2.177,0,0,0,.5-.8l.1-.5c.1-1,.2-2.1.3-3.1-.1-.5-.1-.5-.2-.5l-.1-.5a8.276,8.276,0,0,0-1.1-1.5c.1,0,.1,0,.2-.1-.4-.4-1-.8-1.4-1.2.1-.5.2-1.1.3-1.6V133h0c.3,0,.7-.1.9-.1,3.1,5.4,3.1,5.4,5.8,7.2.2-.2.5-.4.7-.6,1,.2,1.5.2,2-1.3,1.9,1.7,3,8,3.4,10.4a5.547,5.547,0,0,0-.6.8c-.2-.2-.4-.5-.6-.7-1.3.6-1.3.6-1.8,5.2h-.1c-.1,0-.1,0-.2.1l-.1-.1a11.482,11.482,0,0,1,.1-1.9l.1-.4c.2-2.2.2-2.2-.4-3a9.928,9.928,0,0,1-3,.5c-.1,0-.2.1-.3.1a13.017,13.017,0,0,0-1.7-.8c-.4,1.8-.1,3.6-.2,5.4-.2.2-.5.4-.7.6a4.054,4.054,0,0,1-.9-.5c-.1-.1,0-.2.1-.2-1.4-.9-2.9-1.6-4.4-2.5h-.5c-2.7-1-2.7-1-3.6-1.6a.367.367,0,0,0,.3-.1c-2-1.4-2-1.4-2.3-1.9a19.91,19.91,0,0,1,1.2-1.9c-.2-.5-.5-1.2-.7-1.7h.2l-.2-.3c-4.2-5.8-14.3,2.7-14.4,2.8h.1l-.1.1c-2.7,2.4-6.1,3.6-8.8,5.9l-.4.4c-.5.8-1.6,2.3-1.2,6.5a7.561,7.561,0,0,1,0,2.6c-.1.6-.9.9-1.4,1.3-2,1.5-2,1.5-6.3,13-2,5.4,2.6,11.3-1.1,16.6l-.2.1-.1.1c.8,2.3,0,4.9,1.4,7,1.8,2.7,5.8,3.2,7,6.6,2.3,6.3,4.7,7.1,5.4,7.2.2-.2.4-.5.6-.7h-.2l.2-.5c.3-.3.5-.8.8-1,2.4-1.1,5.1,0,7.5-1.2,2.2-1.1,2.8-4.2,5.7-4.5.6-.1.6-.1,3.7,4.9,1.2-.1,1.4-.2,3.2-2.2,1.6,1.4,1.6,1.5,1.5,2.5-.3,3.3-3.2,5.6-3.8,8.8-.6,2.9.9,5.7.4,8.6-.2,1.1-2.8,7.1-2.8,7.1-9.8,17.9-18.9,23.1-24.3,26.3a35.388,35.388,0,0,0,6.6-2.7h0c.6-.3,1.3-.7,1.9-1l.3-.2c1.1-.6,1.7-1,3.1-1.8h0c.5-.3,1.3-.8,1.8-1.1l.3-.2a22.535,22.535,0,0,0,2.4-1.7l.3-.2c.5-.4,1.1-.8,1.5-1.2h.1c1-.8,2.1-1.4,3.1-2.2l.4-.3h0A20.022,20.022,0,0,0,286,248h.1c.5-.5,1.2-1.1,1.8-1.6l.4-.4.2-.2a5.718,5.718,0,0,1,.8-.7l.7-.6c1.1-1,1.2-1.1,2.3-2.1l.4-.4a10.632,10.632,0,0,0,1.5-1.5l.4-.4c.8-.8.9-1,2.1-2.2.6-.7.6-.7.6-.6.4-.5,1-1.1,1.4-1.6.2-.2.2-.2.2-.3l.3-.4c.4-.5.9-1.2,1.3-1.7.4-.6.4-.5.4-.5.4-.5.9-1.2,1.3-1.8h0c1-1.4,1-1.4,1.7-2.5l.1-.2c.3-.5.6-1.2.9-1.7h.1c.4-.6.8-1.5,1.2-2.1l.3-.6c.3-.5.6-1.2.9-1.6l.2-.3,1.5-2.7c.2-.3.1-.3.1-.3.3-.6.8-1.4,1.1-1.9l.2-.3c.5-1,.7-1.2,1.3-2.6l.4-.8.1-.1c.3-.6.6-1.3.9-1.8.2-.3.2-.3.2-.4a29.965,29.965,0,0,0,1.5-3.6h0a9.821,9.821,0,0,1,.8-1.8l.3-.8c.5-1.4.7-1.9,1.2-3.6h0v-.2a16.689,16.689,0,0,0,.5-1.8l.1-.4.9-3.6h0c.1-.6.3-1.4.4-1.9l.1-.5a23.011,23.011,0,0,0,.5-3.2l.1-.4c.1-.5.2-1.3.3-1.8l.1-.6c.1-.6.1-1.3.2-1.9-.4,1.9-.4,2-.6,3h0v.1c-.2.6-.4,1.5-.6,2.1-.1-.3-.1-.6-.2-.9,0-.3.1-.3.1-.3.2-1.9.2-1.9.3-3,0-.4,0-.4-.1-.4a14.768,14.768,0,0,0-.1-2.1l.1-.1c-.1-1-.3-2.1-.4-3.1a.1.1,0,0,0-.1.1c-.1-.7-.1-1.5-.2-2.2a.1.1,0,0,0,.1-.1V178a10.24,10.24,0,0,0-.8-3,.1.1,0,0,0-.1.1c-.2-.5-.4-1.2-.6-1.7v-.5a18.653,18.653,0,0,1-.3-3l-.1-.5c-.1-.5-.1-1.2-.2-1.8s0-.6,0-.6a28.424,28.424,0,0,0-.6-2.9l-.2-.4c-.2-.7-.5-1.5-.7-2.2a.1.1,0,0,0,.1-.1c-.2-.7-.6-1.7-.8-2.5-.3-.8-.3-.7-.4-.7-.2-.6-.5-1.3-.7-1.8-.1-.3-.1-.3,0-.3l-.2-.4a3.508,3.508,0,0,1,.5-.8c.1.1,6.2,9.9,6,29.4.8-1.1,1.4-2.6,1.4-11.3-.3-4.5-.9-10.5-1.5-14.9v.2c.1.3.1.7.2,1.1v.3c-.2-1-.2-1.4-.4-2.2v-.2c-.6-2.1-.6-2.1-.8-3h0c-.2-.6-.4-1.4-.6-2v-.1c-.6-1.7-.6-1.7-.9-2.6l-.1-.4a15.984,15.984,0,0,1-.5-2.1,46.172,46.172,0,0,1,2.3,6.8c-.9-3.4-2.2-7.9-3.3-11.2-3.8-9.2-3.8-9.2-6.3-13.7-5-8.2-5.1-8.4-8.3-12.4-6.2-7.3-6.3-7.4-10.1-11-7-6-7.3-6.3-11.8-9.3-7.2-4.4-7.9-4.9-13.4-7.5l-4.1-1.7-.2-.1a10.187,10.187,0,0,0-2.2-.8h0c-1.5-.6-2.3-.9-2.9-1.1Zm-.6-.2h0c-.4-.1-.8-.3-1.2-.4,3.2,1.1,3.2,1.1,4.2,1.5-.6-.2-1.4-.5-1.9-.7l-.2-.1-.9-.3Z" fill="url(#linear-gradient)"/>
      <path id="Path_1008" data-name="Path 1008" d="M248.9,83.1c1.1.3,1.9.5,3,.8h0c.7.2.8.2.9.3h-.2a40.4,40.4,0,0,0,5.6,2.3h0c.7.2,1.4.5,2.1.7h0c1.4.6,2,.9,2.2,1a13.774,13.774,0,0,1-5.1-1.6h-.1c-.9-.4-1.6-.7-2.3-1h0c-1.8-.7-3.7-1.2-5.5-2.1h.2c-.1-.1-.2-.1-1-.3-.5-.1-.7-.2-.8-.2a1.76,1.76,0,0,1,.6.1h.4Z" fill="#0eabe9"/>
      <path id="Path_1009" data-name="Path 1009" d="M185.9,105a.874.874,0,0,1-.6.4l-.2.1c-.4.1-.5-.1-.4-.3a1.85,1.85,0,0,1,1.2-.8c.5.1.1.6,0,.6Z" fill="#0eabe9"/>
      <path id="Path_1010" data-name="Path 1010" d="M184.7,103.9c-.1.1-.1.1-.4.2-.5.3-.7,0-.6-.3,0-.2,0-.2.6-.5.2-.1.3-.2.5-.2.4.2.1.6-.1.8Z" fill="#0eabe9"/>
      <path id="Path_1011" data-name="Path 1011" d="M196.5,89.3c-.5.2-.7.2-.7.1a2.979,2.979,0,0,1,1.8-.8c.1,0,0,.2-.4.4h-.1a2.954,2.954,0,0,0-.6.3Z" fill="#0eabe9"/>
      <path id="Path_1012" data-name="Path 1012" d="M197.1,88.2a5.338,5.338,0,0,1-1.1.4h0c-1,.4-1,.4-1.4.4,0-.1,0-.1.4-.3.5-.2.6-.3.6-.4a1.579,1.579,0,0,0-.7,0h0c-.3.1-.4.2-1.2.5a5.452,5.452,0,0,1-1,.4h0a35.192,35.192,0,0,1,4-1.8h.1c.3-.1.3-.1,1.5.1h0a3.97,3.97,0,0,1-1.2.7Z" fill="#0eabe9"/>
      <path id="Path_1013" data-name="Path 1013" d="M191.7,91.2a8.677,8.677,0,0,1-2,1h0a6.888,6.888,0,0,0-.8.3l-.2.1c-.2.1-.2.1-.3.1,0-.1,0-.2,2.1-1.5l.1-.1c-.2-.1-.5.2-.7,0a7.105,7.105,0,0,1,2-1.1h0c.1,0,.3-.1.4-.1h0c.1,0,.1.2.3.2a5.951,5.951,0,0,1,.8-.1c.2.1,0,.2,0,.2a11.22,11.22,0,0,0-1.7,1Z" fill="#0eabe9"/>
      <path id="Path_1014" data-name="Path 1014" d="M177.8,202.2a1.483,1.483,0,0,1,.7-.1,1.072,1.072,0,0,1,.6.2,5.283,5.283,0,0,0-1.3-.1Z" fill="#0eabe9"/>
      <path id="Path_1015" data-name="Path 1015" d="M295.3,239.1l-1.3,1.4c.4-.5,1.8-1.9,3.1-3.4l-1.8,2Z" fill="#0eabe9"/>
      <path id="Path_1016" data-name="Path 1016" d="M226.7,83.5c.1,0,.1.1.2.2h0c.3.3.3.3.7,1.8h0c.1.3.1.4.2.8h0v.1a3.259,3.259,0,0,0,.4,1.3h-.1l.2.2c.3.3.7.4.9.7h0a2.026,2.026,0,0,0,.4,1.5h-.1c.1.3.2.4.5,1.1h.1c0,.1.1.2.1.3v.4c-.7.2-1.2-.8-2-.4,0,.2-.1.5.5,1.5h-.1l.1.2c.2.3.4.7.6,1h.1l.1.2c.8,1.2-.1,1.7-.5,1.6a1.533,1.533,0,0,1-.7-1c-.1-.3-.2-.8-1.6-1.4l-.1.1c0,.3.1.3.2.7h.1c.3.9,1.2,1.2,1.8,1.8h-.2c.5.6.5.6.5.7l-.1.1c-.3.1-.6,0-.9.1-.7.3-1.2,1-2,1.3a6.193,6.193,0,0,1-2,.1h-.7a4.163,4.163,0,0,0-.6,1.2h-.1a1.421,1.421,0,0,0-.2.6c-.4.9-.4.9-1.7.8-.9-.1-.9-.1-1.9.6-1.4,1.1-1.4,1.1-1.4,1.7h-.2c.1,1.4.1,1.4-1.3,1.6a8.649,8.649,0,0,0-.6,2.3h-.1a2.486,2.486,0,0,1-1.1,1.6h0c-1.4,1.2-1.5.3-1.7-1.3-.7-.1-1,.9-1.8.6-.4-1.1-1.5-1.8-1.8-3-.5-1.9-.1-2.1.5-2.4h0c-2.2-1-.4-3.8.2-4.5.4-.4.4-.4.4-.6a1.483,1.483,0,0,0-.7-.1c-.5-.9,1.6-2.9,2.1-2.7h.5c0,.1.1.4-.7,1.6H211l-.1.1c-.1.1-.1.3-.2.4a1.38,1.38,0,0,1,.3.4c1-.4,1.2-3.1.6-3.3-.3-.1-.3-.1-1,.6h0a3.849,3.849,0,0,1-1.1.9c.2-1.6,2.1-2.5,1.9-4.3-.2-1.2-.4-1.2-2.6-1.5v-.2c.1-.2.3-.4,1-1-.1.1-.3.2-.4.3l-.1.1c-1.2.9-1.6,1.2-2.1,1.2V90c.9-1.3.9-1.3.9-1.4H208l-.1-.1a1.057,1.057,0,0,1,.9-.6h0c2.5-.6,4.6-2.2,7-3.1h.2c.1.1.2.1.9-.4.3-.2,1.8-1,2.5-.8v.3c.2,0,.3,0,.7-.3a8.776,8.776,0,0,1,1.5-1.2h0c-.1.1-.2.2-.2.3h0c-.1.1-.1.2-.2.2a8.705,8.705,0,0,0,1.1-.9h0l.1-.1h.1c.2-.1.3-.3.5-.4h0c.1,0,.1-.1.2-.2v.1h0a.367.367,0,0,1,.1.3c-.1.4-.3.4-.4.4l.1.1c.2,0,.2,0,.4-.4h0l.1-.1a.1.1,0,0,1,.1.1h0a5.073,5.073,0,0,1,.6.7h0a3.807,3.807,0,0,1,.5.6h0a6.469,6.469,0,0,1,.8.9h0c.4.4.5.5.8.5,0-.1.1-.1.1-.2a10.379,10.379,0,0,0-.4-1c-.1-.3.5.2.7.2Z" fill="#0eabe9"/>
      <path id="Path_1017" data-name="Path 1017" d="M163.5,172.4a.873.873,0,0,1-1.5.4,1.417,1.417,0,0,1-.1-1.1c.1-.1.1-.2.2-.2a3.987,3.987,0,0,1,.4-.3.6.6,0,0,1,.4-.1c.3,0,.4.1.6.4h-.4c.5.3.5.8.4.9Z" fill="#0eabe9"/>
      <path id="Path_1018" data-name="Path 1018" d="M175.1,187.1c-.1.7-.2.7-.3.6-.1.2-.1.2-.2.2s-.3-.2-.4-.5c-.4-.6-.5-.6-.9-.4-1.5.7-1.5.7-1.8.6-.8-.2-1-1.1-1.7-1.4-.2-.1-.4-.1-.6-.2a7.668,7.668,0,0,1-2.1-.5c2.4-3.1,3.1-3.1,4.7-3a4.067,4.067,0,0,1,2.8,2h-.3a3.922,3.922,0,0,1,.6,2.4h.2v.2Z" fill="#0eabe9"/>
      <path id="Path_1019" data-name="Path 1019" d="M163.9,187.9c0,.7-.2.9-.8,1.3-1,.4-1.3-1.8-.9-2.6.1-.2.1-.2.6-.6h.2c.6.2.9,1.2.9,1.9Z" fill="#0eabe9"/>
    </g>
  </g>
</svg>
